<?xml version="1.0" encoding="UTF-8" standalone="no"?><!DOCTYPE svg PUBLIC "-//W3C//DTD SVG 1.1//EN" "http://www.w3.org/Graphics/SVG/1.1/DTD/svg11.dtd"><svg width="100%" height="100%" viewBox="0 0 3000 1590" version="1.1" xmlns="http://www.w3.org/2000/svg" xmlns:xlink="http://www.w3.org/1999/xlink" xml:space="preserve" style="fill-rule:evenodd;clip-rule:evenodd;stroke-linejoin:round;stroke-miterlimit:1.41421;"><g id="AKST.-9"><path d="M233.081,319.078l-19.545,-7.476l-73.752,-4.587c-3.708,-7.495 -22.13,-8.205 -37.908,-14.562l-45.705,14.777l-16.787,20.377l-23.1,11.223c6.634,8.76 15.25,16.846 21.416,18.838c24.711,7.982 19.01,7.829 23.102,13.612c-7.072,8.484 -14.888,8.057 -23.601,-3.128c-27.667,6.42 -35.83,15.563 -13.319,28.988l25.035,1.316l12.202,-2.857l-0.422,14.18l-26.131,7.802c-15.662,15.857 -15.307,28.212 5.077,36.189l15.761,3.803l0.425,12.016l39.762,-0.676c-14.134,25.667 -37.732,36.204 -64.246,42.078c31.195,-2.362 62.614,-12.319 94.59,-41.023l-2.877,-8.251l26.943,-19.678c-7.805,7.997 -9.437,14.443 -3.068,18.877c18.326,-3.862 27.365,-9.544 25.455,-17.371c-2.454,-13.188 28.101,-6.334 60.704,7.199l-0.011,-131.666Z" style="fill:#3bbeec;"/><ellipse id="Anchorage" cx="159.329" cy="433.459" rx="1.88" ry="1.875"/></g><g id="PST.-8"><path d="M272.548,330.103l-39.467,-11.025l0.011,131.666c45.877,-1.57 89.735,102.738 144.838,118.307c18.297,10.26 2.028,17.127 -8.705,14.12c7.238,12.376 7.472,56.148 -0.026,57.405c-2.169,5.633 25.405,89.688 52.747,83.628l33.462,54.965l10.673,-3.969c-10.573,-8.82 -15.848,-19.064 -15.958,-44.388c4.838,-26.267 8.536,-55.34 6.211,-85.523c-53.324,3.886 -41.431,-26.75 -4.967,-32.556c6.738,2.131 -3.564,-28.386 -18.207,-39.901c8.757,-22.92 -59.862,-95.622 -76.847,-86.508c27.876,-20.071 20.216,-15.514 -1.434,-36.262c26.536,4.016 23.777,-22.51 -1.308,-9.09c-15.344,-16.169 -36.898,-31.229 -40.963,-52.294c-5.926,-30.706 -46.666,-34.455 -40.06,-58.575Z" style="fill:#86d1f1;"/><ellipse id="Vancouver" cx="381.075" cy="572.291" rx="1.88" ry="1.875"/><ellipse id="LosAngeles" cx="422.001" cy="723.296" rx="1.88" ry="1.875"/></g><g id="MST.-7"><path d="M272.548,330.103c33.648,-33.275 144.384,-20.243 236.78,31.535c-33.954,-52.372 56.103,-18.711 64.089,-12.694c14.361,-40.922 25.673,-45.446 32.236,4.087c6.802,-6.589 20.826,-22.83 15.567,-28.112c-50.099,-23.507 1.1,-68.236 22.312,-5.841c2.336,24.283 17.983,23.648 20.05,6.393l-0.311,31.292l-106.683,1.156l-0.121,90.853c0.467,3.415 -64.563,0.891 -65.463,0.592c2.654,0.588 -1.517,91.117 -0.235,125.337c14.61,-1.897 47.253,1.566 47.205,0.522l3.523,14.278c29.323,-7.085 30.717,20.571 22,60.804c-1.982,25.574 -5.686,46.075 -16.183,46.558l-0.639,45.245l-14.828,0.67c-4.825,4.809 4.575,28.224 13.044,26.768c-1.822,16.12 -6.022,24.024 -13.09,22.012c-21.223,-1.476 -20.832,9.53 -2.847,30.696c14.488,10.876 11.943,18.651 -2.254,24.305c8.349,-12.123 -13.23,-38.868 -49.07,-72.582l-17.845,-28.323l-8.771,-1.321c0.098,1.013 -0.154,-1.996 -0.42,-5.432c-0.302,-3.894 -0.622,-8.335 -0.471,-8.089c4.838,-27.361 8.536,-54.083 6.211,-85.523c-30.002,2.764 -44.677,-9.061 -33.297,-20.182c4.715,-4.608 13.904,-9.095 28.33,-12.374c6.829,-0.068 -6.401,-31.892 -18.207,-39.901c7.423,-24.475 -57.396,-93.85 -76.847,-86.508c22.924,-16.83 24.88,-14.092 -1.434,-36.262c31.771,0.705 16.639,-21.079 -1.308,-9.09c-16.836,-15.92 -34.711,-31.008 -40.963,-52.294c-9.496,-32.329 -46.738,-35.437 -40.06,-58.575Z" style="fill:#f37b24;"/><path d="M483.339,802.866l-17.258,-27.666l-10.673,3.969l16.6,29.298c25.028,20.746 29.195,19.259 11.331,-5.601Z" style="fill:#f37b24;"/><path d="M555.566,164.95c-0.22,3.723 -0.652,7.417 -0.652,11.163c0,1.23 0.082,2.444 0.082,3.673c0,0.414 0,0.827 0,1.241c0,0.204 0.305,0.752 0,0.611c-0.759,-0.35 -4.122,-0.445 -5.167,-0.547c-5.556,-0.541 -15.842,-0.653 -17.801,-3.98c-1.829,-3.109 4.429,-3.315 8.906,-3.865c1.457,-0.179 2.496,-1.988 1.795,-2.567c-1.475,-1.219 -4.289,-1.964 -7.062,-2.19c-1.905,-0.155 -3.953,0.06 -5.715,-0.443c-2.747,-0.783 -3.43,-2.75 -3.764,-4.153c-0.898,-3.772 3.643,-6.017 11.176,-6.017c1.449,0 3.036,-0.105 4.377,0.22c3.502,0.849 5.904,3.358 8.22,4.854c1.049,0.678 2.047,1.405 3.519,1.873c0.45,0.143 1.742,0.503 1.742,0.662" style="fill:#f37b24;"/><path d="M385.193,219.879c7.741,-15.854 25.524,-25.233 53.468,-28.061l-1.828,18.336c-5.616,4.024 -11.212,3.985 -16.787,0.069c-9.226,3.116 -13.456,7.494 -15.058,12.537c-5.017,-3.164 -11.532,-4.241 -19.795,-2.881Z" style="fill:#f37b24;"/><path d="M485.522,169.8c-1.615,0 -3.031,0.421 -4.496,0.745c-5.251,1.159 -8.11,1.858 -11.235,4.487c-2.662,2.24 -3.102,5.231 2.8,5.59c5.687,0.346 11.68,-0.45 16.929,-1.501c1.975,-0.395 4.656,-0.235 6.138,-1.175c1.043,-0.662 0.765,-1.881 0.765,-2.679c0,-3.821 -4.614,-5.506 -11.182,-5.506" style="fill:#f37b24;"/><path d="M490.758,184.779c-7.436,0 -16.182,-1.012 -22.35,1.273c-5.286,1.957 -7.333,7.573 -2.4,9.893c3.32,1.562 8.313,1.834 12.846,1.62c9.323,-0.441 12.058,-4.711 12.807,-8.482" style="fill:#f37b24;"/><path d="M444.677,210.104c-12.299,5.542 -15.214,15.999 -13.142,26.657c12.025,-3.785 24.518,-4.059 37.663,0.557c-22.686,12.703 -16.023,13.936 9.301,7.876l34.574,-7.511c15.736,-10.771 14.803,-15.916 -5.603,-14.49c-15.419,-24.437 -22.162,-27.32 -15.255,3.698l-16.472,1.329c-6.543,-10.613 -17.724,-15.661 -31.066,-18.116Z" style="fill:#f37b24;"/><path d="M369.975,291.472c9.8,8.091 19.563,7.736 29.291,-0.174l31.914,-25.755c12.067,-7.203 7.7,-12.325 -7.913,-16.024c-13.997,1.444 -23.58,-1.571 -29.096,-8.693c-20.593,0.584 -28.214,7.794 -23.884,21.108l-5.484,11.802c-4.364,6.576 -3.168,12.546 5.172,17.736Z" style="fill:#f37b24;"/><path d="M527.534,248.714c-3.599,0.848 -7.569,3.137 -8.769,6.887c-2.151,6.724 5.737,12.49 12.126,11.425c2.79,-0.465 4.105,-4.257 4.105,-6.589c0,-4.644 -3.276,-11.436 -8.601,-11.436" style="fill:#f37b24;"/><path d="M566.908,267.155c-0.01,0.09 0.042,2.312 -0.585,2.894c-1.32,1.226 -7.797,0.761 -9.723,0.575c-2.635,-0.254 -5.658,-1.096 -6.115,1.45c-0.674,3.756 7.185,7.256 10.615,9.666c4.933,3.466 9.791,6.885 15.415,9.819c2.433,1.269 4.19,2.825 7.235,3.36c1.022,0.179 1.748,-0.656 2.458,-1.014c1.04,-0.524 2.155,-0.977 3.002,-1.687c0.966,-0.81 1.178,-1.702 2.67,-2.123c2.644,-0.746 5.564,-0.036 7.804,-1.618c2.03,-1.433 2.233,-3.694 2.233,-5.635c0,-2.551 -0.172,-4.966 -1.983,-7.131c-0.853,-1.02 -2.425,-1.525 -3.884,-2.039c-4.514,-1.593 -9.071,-2.993 -13.983,-3.98c-4.003,-0.804 -7.566,-2.493 -11.554,-3.198c-1.919,-0.34 -3.662,0.385 -5.345,0.385" style="fill:#f37b24;"/><path d="M463.417,309.406c-47.769,2.584 -51.762,10.778 -1.013,25.988l23.923,1.503c15.908,-8.84 30.591,-12.73 42.248,-4.406l22.233,0.08c-9.101,-5.03 -10.682,-10.69 9.789,-18.196c-12.047,-6.028 -22.001,-14.124 -29.171,-24.974c-21.149,-38.26 -27.047,-28.425 -29.225,-6.862c-13.751,-25.2 -19.562,-17.456 -24.328,-5.38c-6.396,-10.406 -14.643,-13.946 -26.024,-5.851c-1.153,-8.02 -6.687,-9.595 -16.209,-5.303l-15.987,10.667c-6.362,6.62 -4.63,11.306 5.888,13.892c8.941,0.88 12.522,2.848 3.29,7.418c-11.513,4.326 -11.48,7.117 2.162,8.101l32.424,3.323Z" style="fill:#f37b24;"/><ellipse id="Edmonton" cx="460.869" cy="524.222" rx="1.88" ry="1.875"/><ellipse id="Denver" cx="531.261" cy="669.776" rx="1.88" ry="1.875"/></g><ellipse id="template-.28.Ellipse.29." cx="246.557" cy="397.046" rx="1.88" ry="1.875"/><g id="CST.-6"><path d="M693.986,256.915c5.119,-1.012 -32.917,-10.182 -37.695,24.775c-5.348,39.14 43.066,17.439 37.695,45.621c-6.327,33.198 -21.346,38.073 -30.404,-1.84l-0.311,31.292l-106.683,1.156l-0.121,90.853c3.523,0.481 -59.507,3.961 -65.463,0.592c1.42,38.061 -0.806,92.675 -0.235,125.337c18.485,0.06 28.603,-0.245 47.205,0.522l3.523,14.278c12.206,-3.355 20.008,-0.161 23.78,9.027c4.174,10.168 3.412,27.678 -1.78,51.777c-1.963,25.848 -5.53,46.869 -16.183,46.558c0,0 0.119,51.592 -0.639,45.245l-14.828,0.67c-5.527,8.611 8.286,30.448 13.044,26.768c-1.864,12.537 -4.198,24.098 -13.09,22.012c-25.323,-3.381 -15.895,16.942 -2.847,30.696c13.555,14.287 10.12,19.416 -2.254,24.305c14.184,15.13 36.266,27.606 66.34,37.397c25.314,-6.544 90.614,22.286 97.069,48.349c0,0 22.953,11.949 24.817,16.056l0.294,-11.868c-7.975,-7.119 -10.662,-16.504 -6.119,-28.987c12.21,-19.817 -19.92,-31.685 -26.316,-23.453c-20.872,4.324 -20.913,0.959 -12.737,-11.732c2.033,-13.158 -1.876,-12.184 -7.917,-6.136l-0.607,-12.967c21.748,-19.504 18.349,-23.326 -8.215,-12.701c-0.687,27.968 -49.998,29.687 -57.155,3.169c-30.609,-81.343 43.422,-93.293 100.116,-81.334c3.651,-24.082 -2.284,-32.683 -2.284,-32.683c0.018,-27.664 20.328,-35.711 -18.538,-48.24c18.104,-71.131 1.953,-89.228 -18.73,-79.87c-7.487,-30.536 -16.431,-70.828 6.864,-114.593c-49.612,-5.864 -18.528,-20.045 -49.575,-25.346c-4.727,-44.401 47.154,-48.684 82.757,-93.767c-0.602,0.145 1.319,-72.999 -0.847,-72.941c-6.14,-0.966 -21.748,-22.376 -1.931,-37.997Z" style="fill:#f6c49f;"/><path d="M686.506,100.231c-5.558,1.544 -2.432,5.615 0.077,7.251c1.381,0.9 3.684,1.41 5.416,2.151c0.202,0.086 -0.722,1.773 -1.023,1.895c-1.07,0.433 -2.24,-0.856 -3.617,-0.856c-4.981,0 -7.182,-2.485 -12.022,-2.485c-1.694,0 -5.842,-0.823 -7.413,-0.615c-4.088,0.538 -7.324,3.135 -11.682,3.662c-5.26,0.635 -12.184,2.064 -16.435,3.865c-0.785,0.332 -1.085,1.61 -0.404,1.998c1.841,1.05 6.301,1.017 8.01,2.131c1.473,0.961 0.904,3.409 2.798,3.94c2.027,0.568 5.988,0.229 8.341,0.229c0.408,0 -2.247,3.101 -3.206,3.908c-0.653,0.55 -0.203,1.051 1.397,1.144c6.871,0.399 14.444,-0.599 21.16,-1.084c1.573,-0.113 3.129,-0.292 4.673,-0.418c0.241,-0.02 1.989,-0.499 2.087,-0.422c1.038,0.813 -6.522,1.895 -7.231,1.964c-5.391,0.522 -16.273,0.633 -14.048,4.438c1.115,1.905 10.464,1.262 13.584,1.262c1.324,0 3.135,0.136 4.354,-0.127c0.504,-0.108 5.321,1.383 4.152,1.809c-5.198,1.898 11.29,2.683 11.29,2.683c0,0 -0.606,-35.416 -0.606,-38.472" style="fill:#f6c49f;"/><path d="M696.158,142.418c0,0 -12.155,-3.262 -14.244,1.692c-0.269,0.636 0.2,1.747 -0.13,2.392c-2.183,4.264 14.099,10.043 14.099,10.043c0,0 0.275,-11.514 0.275,-14.127Z" style="fill:#f6c49f;"/><path d="M693.986,161.163c0,0 -6.438,-7.296 -8.514,-7.651c-8.256,-1.414 -9.528,-9.087 -14.205,-12.148c-4.572,-2.992 -11.123,0.162 -15.714,-2.81c-5.121,-3.315 -8.027,-4.638 -12.594,-8.186c-1.367,-1.062 -3.845,-1.775 -5.032,-2.78c-2.236,-1.892 -4.778,-7.043 -9.152,-7.807c-4.845,-0.846 -5.726,1.384 -8.468,2.902c-1.623,0.899 -3.981,1.126 -5.492,1.961c-1.803,0.996 -1.947,2.79 -2.674,4.072c-0.558,0.985 -1.86,1.475 -1.86,2.597c0,1.42 1.89,2.18 3.336,3.255c0.27,0.201 1.563,0.913 1.165,1.233c-0.885,0.711 -3.563,0.798 -4.881,1.276c-2.008,0.727 -6.11,4.26 -5.23,5.685c0.847,1.372 11.168,0.901 8.714,3.597c-1.349,1.482 -5.337,1.646 -7.821,1.99c-2.321,0.321 -3.95,1.277 -5.182,2.482c-0.53,0.518 -1.402,1.796 -0.824,2.441c0.43,0.48 2.072,0.562 2.86,0.645c2.862,0.302 6.588,0.643 8.284,1.904c1.111,0.827 0.361,2.601 -0.237,3.431c-0.169,0.236 -0.537,1.342 -0.029,1.528c1.333,0.487 3.794,0.212 5.328,0.212c7.573,0 14.934,-2.871 20.456,1.234c1.987,1.478 -1.776,2.478 -3.455,3.216c-3.912,1.72 -13.16,-3.257 -11.647,0.119c0.227,0.504 4.453,7.651 5.112,7.959c1.869,0.877 3.37,1.989 5.085,2.945c1.667,0.929 2.237,2.299 3.932,3.243c4.359,2.431 13.066,4.14 19.051,2.457c3.743,-1.052 4.551,-2.597 6.735,-4.432c1.728,-1.451 3.947,-2.81 5.94,-4.137c1.634,-1.088 4.132,-1.743 5.91,-2.74c3.76,-2.107 7.68,-4.167 11.448,-6.279c2.615,-1.465 7.283,-2.069 9.655,-3.414Z" style="fill:#f6c49f;"/><path d="M696.764,167.454c-1.963,-0.345 -5.241,-1.521 -7.239,-1.783c-6.538,-0.856 -8.753,3.452 -11.435,6.105c-1.256,1.242 -3.268,3.566 -2.472,5.105c0.291,0.563 2.367,4.772 3.156,4.96c2.85,0.68 5.562,-2.745 8.112,-1.738c1.474,0.582 1.704,2.533 2.033,3.49c0.406,1.178 0.385,5.573 1.763,6.403c1.781,1.072 4.758,2.943 3.176,4.82c-0.53,0.629 -3.174,0.976 -4.365,0.618c-1.664,-0.501 -2.556,-5.188 -3.819,-5.949c-2.052,-1.235 -5.91,-1.194 -8.591,-1.737c-0.541,-0.109 -6.249,1.059 -6.522,1.6c-1.539,3.06 4.894,5.67 2.583,8.431c-1.149,1.372 -4.158,1.796 -6.149,2.518c-3.275,1.188 -5.584,5.201 -6.475,7.317c-0.31,0.736 -1.595,1.349 -1.105,2.206c0.608,1.063 4.294,1.697 5.773,2.218c6.091,2.148 31.576,1.743 31.576,1.743l0,-46.327Z" style="fill:#f6c49f;"/><path d="M587.217,168.976c0,0 -1.842,4.319 -1.423,6.567c0.251,1.35 3.016,3.222 4.082,4.441c3.09,3.532 3.661,7.632 7.715,10.86c2.113,1.682 5.228,2.311 7.668,3.684c6.323,3.557 16.075,3.587 22.632,-0.841c2.027,-1.369 -1.388,-3.143 -2.67,-4.001c-2.822,-1.889 -6.914,-0.209 -10.539,-1.262c-1.173,-0.34 -3.579,-0.794 -4.292,-1.518c-2.371,-2.409 4.099,-5.102 2.901,-7.809c-0.758,-1.713 -3.006,-2.866 -4.703,-4.164c-1.79,-1.37 -3.267,-2.848 -5.343,-4.016c-3.344,-1.883 -7.861,-2.046 -11.446,-3.246c-2.327,-0.778 -3.586,1.305 -4.582,1.305Z" style="fill:#f6c49f;"/><path d="M557.141,163.971c-0.195,3.895 -0.579,7.757 -0.579,11.676c0,1.286 0.344,5.925 0.073,5.778c-0.675,-0.366 21.365,6.279 21.913,6.719c2.231,1.794 3.83,-1.087 3.884,-4.939c0.047,-3.398 -1.109,-7.551 -4.098,-9.915c-0.781,-0.617 -21.499,-8.925 -21.499,-8.759" style="fill:#f6c49f;"/><path d="M696.764,226.019c-2.328,1.036 -6.461,0.932 -8.714,2.05c-2.101,1.042 -7.777,-0.396 -10.015,0.466c-6.444,2.48 -4.443,0.351 -10.141,-1.505c-4.047,-1.319 -8.559,-0.952 -11.32,-3.939c-3.527,-3.817 -7.868,-8.173 -10.531,-12.274c-0.25,-0.385 -1.943,-3.891 -2.203,-3.936c-3.669,-0.634 -7.276,-1.673 -10.978,-2.271c-3.874,-0.625 -7.929,1.598 -11.751,0.611c-4.127,-1.065 -4.919,-5.401 -9.24,-6.518c-2.607,-0.673 -9.656,-1.096 -10.935,1.365c-0.533,1.028 -0.542,2.199 -0.542,3.289c0,1.222 -0.295,2.686 0,3.891c0.158,0.646 1.587,1.213 2.178,1.597c2.568,1.669 5.843,2.261 8.725,3.525c5.738,2.516 11.729,5.37 16.752,8.677c6.943,4.571 9.118,12.548 14.621,17.916c9.322,9.091 23.108,9.448 36.862,9.448c4.605,0 17.232,-3.618 17.232,-3.618l0,-18.774Z" style="fill:#f6c49f;"/><path d="M545.178,207.379c1.998,5.942 4.531,14.653 10.717,18.773c2.054,1.368 4.945,1.764 7.098,3.043c2.94,1.747 6.15,3.206 9.006,5.092c4.724,3.118 14.687,7.232 19.741,1.944c1.62,-1.693 1.624,-4.326 1.954,-6.354c0.374,-2.304 -0.188,-4.409 -0.554,-6.629c-0.731,-4.446 -0.645,-8.319 -3.402,-12.356c-1.34,-1.963 -3.191,-6.038 -6.186,-6.58c-8.775,-1.589 -8.843,9.697 -16.416,8.637c-2.23,-0.312 -4.777,-1.863 -6.938,-2.54c-3.574,-1.118 -7.606,-1.195 -11.201,-2.32c-0.743,-0.232 -3.819,-0.71 -3.819,-0.71Z" style="fill:#f6c49f;"/><path d="M614.165,225.659c-3.221,1.013 -7.168,2.16 -9.565,3.806c-1.836,1.261 -3.477,2.44 -4.032,3.991c-1.9,5.311 5.317,9.003 14.881,9.003c2.295,0 5.391,0.263 7.342,-0.528c2.429,-0.985 2.781,-3.308 3.56,-4.786c0.645,-1.223 1.825,-2.523 1.201,-3.85c-0.891,-1.897 -3.771,-4.371 -6.589,-5.506c-0.822,-0.331 -6.798,-2.13 -6.798,-2.13Z" style="fill:#f6c49f;"/><path d="M567.548,265.749c-2.42,-1.614 -5.541,-3.759 -4.422,-6.168c0.376,-0.811 2.438,-1.684 3.397,-2.245c3.095,-1.809 7.024,-3.624 10.729,-4.988c3.754,-1.381 10.717,-4.718 15.362,-2.571c7.827,3.617 0.741,9.467 -0.572,13.462c-0.415,1.262 -1.16,3.202 -0.583,4.547c0.186,0.434 0.111,1.003 0.451,1.4c0.202,0.234 0.884,0.737 0.434,0.745c-0.987,0.02 -2.586,-0.656 -3.431,-0.946c-2.24,-0.767 -4.64,-1.199 -6.99,-1.673c-3.894,-0.785 -8.362,-0.423 -12.123,-1.527c-0.436,-0.127 0,0.323 0,0" style="fill:#f6c49f;"/><path d="M618.727,284.251c3.893,-2.813 7.762,-5.654 12.046,-8.218c6.785,-4.062 19.186,-7.866 20.254,-14.462c0.285,-1.762 -0.354,-2.934 -1.265,-4.517c-1.583,-2.75 -4.35,-5.639 -8.466,-7.044c-2.296,-0.783 -4.886,-0.663 -7.361,-0.799c-8.836,-0.482 -15.448,0.185 -22.311,4.092c-3.857,2.196 -4.311,5.383 -4.311,8.49c0,5.308 1.6,9.744 3.34,14.896c0.652,1.933 8.074,7.562 8.074,7.562Z" style="fill:#f6c49f;"/></g><g id="EST.-5"><path d="M663.582,486.966c44.724,25.037 61.335,6.721 58.364,48.233c1.931,13.31 33.401,27.121 28.342,7.797c-20.076,-41.013 4.754,-45.941 16.214,-47.189c-20.58,-21.208 -30.326,-148.753 57.759,-34.754c7.488,16.254 31.877,9.696 38.712,-13.886l13.535,58.331c-54.753,4.23 -42.841,45.891 10.966,37.692l6.208,32.052c-0.312,-1.313 -25.642,11.191 -36.792,11.382c-31.65,0.544 -28.547,7.486 -11.474,31.76c-13.395,-0.858 -43.372,20.799 -28.688,31.148c-35.009,12.742 -53.114,36.303 -42.031,58.364c-27.791,15.158 -63.513,32.17 -39.584,71.786c6.042,24.744 1.131,29.198 -12.431,18.527c-3.295,-35.943 -15.362,-41.465 -26.412,-35.857c3.218,-24.51 -2.463,-32.641 -2.284,-32.683c4.537,-37.802 13.754,-34.936 -18.538,-48.24c13.831,-54.022 9.919,-91.221 -18.73,-79.87c-7.819,-31.954 -16.653,-70.677 6.864,-114.593Z" style="fill:#fff100;"/><path d="M696.158,100.082c2.676,0 6.903,4.764 8.581,5.549c2.356,1.103 4.973,1.465 6.839,2.796c1.873,1.337 1.821,3.788 5.682,4.41c5.94,0.957 2.478,-3.792 8.366,-2.934c0.927,0.135 6.381,3.115 6.867,2.884c1.234,-0.587 -0.764,-2.597 -1.579,-3.045c-3.973,-2.183 -10.197,-4.131 -11.767,-7.051c-1.423,-2.644 3.104,-2.804 6.961,-4.328c3.45,-1.363 5.53,-3.189 8.372,-4.777c1.247,-0.697 4.569,-1.361 5.322,-1.996c1.251,-1.055 1.864,-3.113 5.005,-3.577c2.418,-0.358 5.443,0.298 7.163,1.103c4.651,2.175 12.396,4.244 15.352,7.01c1.424,1.332 2.551,2.601 3.93,3.891c0.149,0.139 1.432,1.229 1.692,1.103c0.963,-0.465 0.274,-2.432 0.274,-3.054c0,-3.349 -6.225,-7.429 -0.061,-10.339c1.573,-0.743 4.418,-0.697 6.478,-0.697c8.751,0 10.81,1.742 15.162,4.847c0.817,0.583 3.091,1.426 3.091,2.086c0,0.279 0,-0.559 0,-0.839c0,-0.434 0,-0.868 0,-1.302c0,-1.373 0.774,-2.632 2.538,-3.74c4.353,-2.734 14.214,-3.385 21.01,-2.726c7.46,0.723 13.887,2.471 21.036,3.307c3.297,0.386 7.211,0.905 8.809,2.401c1.624,1.519 -6.214,3.433 -7.844,4.188c-0.471,0.218 -2.478,1.335 -1.512,1.752c1.062,0.459 4.545,-0.334 5.427,-0.473c5.435,-0.858 9.929,-2.425 15.627,-3.101c9.27,-1.099 17.44,4.557 22.905,7.114c1.497,0.7 5.391,0.372 6.315,1.237c5.692,5.325 -6.221,11.016 -15.036,13.814c-5.848,1.856 -8.842,4.016 -15.652,5.272c-3.643,0.672 -7.629,0.752 -11.386,1.189c-1.304,0.151 -4.009,0.144 -4.493,0.861c-0.847,1.253 1.211,3.165 -0.385,4.287c-0.784,0.551 -1.85,1.211 -2.836,1.646c-0.619,0.274 -2.953,0.681 -2.101,0.681c1.292,0 2.873,-0.383 4.099,-0.599c2.649,-0.467 16.015,-2.558 13.406,1.082c-1.451,2.023 -7.872,3.018 -10.229,4.884c-3.975,3.149 -8.692,6.385 -13.536,9.225c-1.393,0.817 -2.353,2.12 -4.237,2.692c-2.292,0.696 -5.946,0.527 -7.76,1.367c-1.888,0.876 -1.326,2.95 -3.318,3.555c-2.864,0.87 -8.161,0.184 -10.159,1.59c-2.53,1.779 1.445,3.176 4.468,3.883c0.882,0.206 0.889,1.443 0.195,1.685c-5.257,1.832 -12.8,2.121 -18.086,3.727c-3.114,0.946 0.402,3.613 -3.888,4.404c-4.331,0.799 -10.062,0.672 -14.657,1.028c-1.423,0.111 -4.792,0.389 -5.558,1.095c-2.681,2.471 5.395,1.514 7.452,2.982c1.413,1.008 -1.625,2.294 -0.759,2.902c1.33,0.933 4.672,0.736 5.501,1.982c2.288,3.438 -5.301,6.002 -7.611,8.593c-0.997,1.118 -3.288,2.36 -3.826,3.559c-0.422,0.941 -0.037,1.969 -0.422,2.91c-1.275,3.112 -9.51,-0.517 -12.872,1.041c-3.302,1.531 -1.391,3.941 -4.72,5.485c-2.35,1.089 -8.596,0.474 -11.661,0.917c-1.167,0.168 -2.686,-0.048 -3.909,0.078c-1.896,0.195 -14.887,0.024 -13.261,2.233c1.064,1.445 10.7,0.396 13.22,0.641c4.584,0.444 12.787,3.986 13.965,6.192c2.352,4.4 -6.029,5.021 -11.27,7.45c-2.176,1.009 -5.13,3.166 -8.858,2.727c-2.762,-0.325 -2.97,-3.296 -4.255,-4.209c-1.432,-1.016 -5.795,-0.151 -7.685,-0.646c-12.385,-3.242 -23.315,-0.205 -23.315,-0.205l0.422,-16.19c0,0 3.81,3.888 5.297,3.754c6.198,-0.556 8.711,-1.894 11.847,-4.412c1.05,-0.844 2.633,-2.179 1.933,-3.225c-0.353,-0.527 -2.634,-0.648 -3.593,-0.511c-3.577,0.511 -5.858,2.244 -9.542,2.674c-0.309,0.036 -3.803,0.6 -4.134,0.293c-0.761,-0.706 -1.808,-1.619 -1.808,-1.619l-0.422,-27.091c0,0 6.928,11.389 8.082,11.659c6.58,1.539 15.911,2.653 18.972,-1.546c2.617,-3.589 -12.749,-3.049 -15.43,-4.303c-2.302,-1.077 -3.067,-2.844 -4.548,-4.22c-0.899,-0.835 -7.957,-12.499 -7.957,-12.499l0.275,-14.127c0,0 7.244,10.901 8.418,11.232c6.822,1.926 11.595,4.625 18.145,6.634c0.832,0.255 7.502,2.543 7.923,2.155c0.319,-0.293 -3.911,-2.263 -4.572,-2.508c-3.069,-1.14 -10.086,-5.831 -7.536,-7.817c2.581,-2.011 8.755,-2.001 12.815,-2.959c5.114,-1.206 9.621,-2.806 14.49,-4.152c2.122,-0.586 6.585,-0.889 8.014,-1.918c3.22,-2.319 3.612,-5.755 2.526,-8.419c-0.497,-1.218 -0.7,-2.4 -0.7,-3.66c0,-0.213 0.31,-1.188 0,-1.333c-2.836,-1.327 -8.166,2.551 -9.217,3.133c-3.264,1.809 -7.278,3.273 -10.441,5.127c-3.673,2.154 -5.898,5.121 -11.54,5.935c-4.219,0.609 -5.577,-2.694 -10.746,-2.094c-5.512,0.641 -7.314,4.438 -13.295,4.438c-0.885,0 -4.284,-3.794 -4.284,-3.794l0,-42.336Z" style="fill:#fff100;"/><path d="M696.764,244.793c6.654,0 19.875,-1.217 26.529,-1.217c4.116,0 9.844,1.166 13.544,-0.351c7.411,-3.039 6,-13.783 -1.693,-16.907c-6.765,-2.748 -12.357,-1.455 -20.159,-2.459c-3.01,-0.388 -16.674,0.314 -18.221,2.16c-0.982,1.173 0,18.774 0,18.774Z" style="fill:#fff100;"/><path d="M696.764,367.853c-4.179,-20.399 2.308,-113.017 0,-111.257c0,0 15.047,1.949 19.723,0.747c5.82,-1.496 7.45,0.095 11.599,2.479c0.645,0.371 4.236,1.932 4.7,1.609c1.114,-0.776 -1.833,-4.61 -0.457,-5.145c9.263,-3.603 21.336,1.684 28.881,5.858c3.626,2.007 2.755,6.454 5.012,9.32c3.578,4.542 9.39,7.722 12.512,12.508c1.856,2.843 0.047,7.213 3.09,9.493c5.729,4.292 16.49,2.11 22.406,6.643c2.789,2.137 5.114,7.373 6.966,10.074c1.037,1.512 14.198,-2.296 20.563,1.362c9.356,5.377 9.721,18.468 14.034,26.132c2.675,4.753 8.05,6.819 13.29,9.555c7.241,3.78 14.98,7.056 21.936,10.92c2.547,1.415 13.449,5.035 12.618,8.07c-0.928,3.389 -3.954,5.975 -6.393,8.761c-4.13,4.718 -6.743,7.186 -12.986,10.059c-1.703,0.783 -6.211,2.389 -8.172,1.259c-4.404,-2.536 -5.201,-7.644 -9.476,-10.395c-3.105,-1.998 -7.886,-1.822 -11.678,-1.822c-2.113,0 -4.517,-0.209 -6.32,0.689c-4.304,2.142 4.882,6.852 6.703,7.783c2.444,1.248 4.625,2.639 6.687,4.22c5.685,4.356 20.632,14.779 15.76,22.135c-2.695,4.068 -15.829,7.953 -21.199,5.535c-3.407,-1.535 -6.242,-3.943 -9.41,-5.768c-0.245,-0.141 -3.152,-1.346 -3.422,-0.929c-2.393,3.697 9.323,7.718 11.935,10.387c1.109,1.133 4.611,3.16 1.451,4.352c-2.865,1.081 -6.399,0.667 -9.648,0.667c-3.857,0 -6.249,-1.375 -9.898,-1.844c-7.867,-1.014 -17.678,-3.79 -23.405,-8.178c-6.633,-5.083 -7.258,-10.535 -16.281,-13.53c-6.257,-2.077 -13.57,-1.984 -20.05,-3.02c-6.297,-1.008 -10.277,0.359 -12.6,-5.326c-1.514,-3.707 2.433,-5.844 6.533,-6.904c8.288,-2.144 16.776,0.263 21.973,-6.783c7.65,-10.374 13.542,-24.284 1.005,-33.892c-5.122,-3.925 -11.731,-6.849 -16.685,-10.646c-2.261,-1.732 -3.011,-4.447 -4.998,-6.258c-4.174,-3.801 -7.651,-7.342 -13.009,-10.047c-1.714,-0.866 -2.695,-2.587 -4.686,-3.064c-4.807,-1.154 -5.056,8.666 -10.091,9.624c-3.933,0.748 -8.533,-0.81 -12.177,-1.513c-6.571,-1.267 -12.223,-0.982 -18.709,-0.982c-0.467,0 0.647,0.517 0.977,0.77c0.736,0.564 1.582,0.909 2.397,1.377c2.338,1.344 5.166,1.95 7.64,3.095c7.603,3.517 10.157,8.234 10.157,15.195c0,4.321 1.994,11.413 -0.61,15.376c-1.77,2.695 -28.188,11.249 -28.188,11.249Z" style="fill:#fff100;"/><path d="M690.978,373.818c0,0 -3.165,6.594 -4.247,8.853c-0.844,1.764 -1.579,3.624 -2.263,5.43c-1.609,4.252 -2.489,8.253 -4.187,12.16c-0.403,0.928 -1.428,3.555 -0.489,4.602c1.092,1.217 4.819,1.635 6.591,2.002c4.676,0.969 9.218,1.575 13.923,2.225c2.486,0.344 6.763,1.997 9.355,0.879c4.438,-1.916 6.742,-5.338 11.956,-6.668c2.229,-0.568 11.189,1.609 12.112,0.57c2.661,-2.993 -0.97,-6.656 -2.895,-9.129c-4.311,-5.542 -10.025,-11.496 -16.733,-15.62c-2.766,-1.701 -5.279,-4.537 -8.868,-5.359c-1.117,-0.255 -12.945,0.054 -14.255,0.055Z" style="fill:#fff100;"/><path d="M702.006,830.354c5.382,-0.194 12.754,-1.389 18.286,-0.271c6.03,1.219 11.993,5.454 17.92,7.492c4.87,1.674 10.492,2.764 14.704,6.113c2.711,2.155 0.816,6.02 2.663,8.335c1.343,1.683 10.836,-1.726 12.676,-2.102c3.118,-0.638 6.762,0 9.949,0c0.47,0 2.804,0.406 3.139,0c0.603,-0.731 -2.479,-4.45 -2.79,-4.899c-2.614,-3.768 -6.426,-10.296 -10.339,-12.192c-8.8,-4.263 -17.341,-4.342 -26.524,-6.213c-7.491,-1.526 -14.572,-3.602 -22.364,-3.602c-4.155,0 -8.396,-0.095 -12.328,1.089c-0.693,0.209 -4.992,6.25 -4.992,6.25Z" style="fill:#fff100;"/><path d="M715.22,948.361l17.375,6.456c6.85,-13.617 13.341,-15.459 19.502,-6.456c11.721,26.933 12.927,45.083 -3.232,48.73c-17.348,22.116 -27.094,39.575 -9.944,40.557c-12.039,11.927 -16.938,23.65 0.047,34.752l30.642,55.289c-1.542,4.477 -1.022,8.301 3.416,10.883l44.78,31.78c12.778,-14.279 15.868,-34.749 7.537,-62.516c8.793,1.718 15.882,-2.779 22.28,-9.794l-25.733,-45.897c-2.084,-31.93 -2.808,-61.683 23.402,-48.359c-0.937,-22.845 -2.347,-44.856 -19.945,-38.257c-5.198,-8.771 -12.926,-11.264 -22.751,-8.555c-10.649,-16.553 -10.642,-31.51 11.728,-43.117c-3.905,-0.67 -18.552,4.8 -39.448,13.842c-1.942,7.293 -5.909,14.1 -10.902,20.662c-11.08,-14.011 -22.861,-15.084 -35.257,-4.785l-13.497,-7.083l0,11.868Z" style="fill:#fff100;"/></g><g id="AST.-4"><path d="M793.525,849.562c-1.937,1.27 -3.608,2.542 -5.28,3.959c-1.016,0.861 -2.018,1.791 -2.667,2.805c-0.876,1.369 -3.223,3.93 -1.861,5.51c1.175,1.363 4.867,1.257 6.762,1.257c5.428,0 10.978,-0.229 16.396,0c5.123,0.215 10.198,0.399 15.343,0.399c2.314,0 4.939,0.223 7.189,-0.16c2.982,-0.508 7.162,-2.009 6.024,-4.619c-0.678,-1.555 -4.455,-2.917 -6.313,-3.712c-2.153,-0.92 -4.421,-1.771 -6.71,-2.549c-3.819,-1.296 -7.301,-2.94 -11.25,-4.07c-4.55,-1.301 -7.696,-0.965 -12.481,-0.525c-1.592,0.146 -3.469,0.889 -4.93,0.889" style="fill:#b4da9d;"/><path d="M845.416,618.384l22.103,-11.109l-14.095,14.072c-2.739,7.22 -0.479,10.131 6.023,9.387l46.092,-25.49l-6.074,-11.233c-11.59,10.669 -23.529,9.68 -35.61,3.967l-6.965,-11.354c-30.68,-0.801 -29.384,7.858 -11.474,31.76Z" style="fill:#b4da9d;"/><path d="M902.703,561.734c8.294,-9.661 22.249,-15.983 36.637,-21.363c-3.569,-3.021 -2.652,-8.183 -0.688,-13.845c-9.602,-1.032 -15.709,-7.066 -18.597,-17.708c-14.068,7.493 -34.85,-22.977 -57.082,-61.651l13.535,58.331c-57.534,5.353 -39.693,46.145 10.966,37.692l3.75,19.36l11.479,-0.816Z" style="fill:#b4da9d;"/><path d="M918.372,982.059c16.203,21.438 15.041,17.712 -5.267,23.38c-14.621,6.152 16.439,35.225 19.808,30.006c5.504,-1.527 -14.023,23.759 -15.436,36.658c4.779,17.836 3.732,16.173 19.057,24.614l27.974,0.161c-7.618,4.203 -15.211,56.022 -1.525,73.474c16.04,-0.124 22.079,11.666 5.719,27.756l-18.46,20.646c-0.82,41.11 -47.007,35.732 -26.975,12.503c-1.182,-8.429 -53.701,-37.811 -71.15,-32.794c-25.305,24.069 -51.325,177.698 -43.483,202.866c0,0 -5.917,38.206 -7.842,55.519c-1.414,3.56 -12.754,-9.62 -26.075,-1.811c-5.305,-20.251 9.782,-57.524 9.782,-57.524c6.333,-29.764 7.381,-47.066 5.195,-56.743c14.046,1.185 34.201,-161.322 28.112,-170.418c15.837,-20.933 12.591,-41.731 7.537,-62.516c8.86,1.345 16.242,-2.062 22.28,-9.794l-25.733,-45.897c-2.236,-31.197 -3.927,-61.575 23.402,-48.359c-1.243,-22.124 -2.437,-44.333 -19.945,-38.257c-4.365,-8.014 -11.67,-11.313 -22.751,-8.555c-6.186,-9.449 -8.37,-18.042 -5.882,-25.634c2.169,-6.62 7.891,-12.48 17.61,-17.483c19.814,18.851 42.872,18.22 66.52,14.048c9.142,4.958 15.901,10.256 16.582,16.422c11.232,2.762 20.859,10.515 29.389,21.686c-5.007,11.067 -2.42,5.92 -8.443,16.046Z" style="fill:#b4da9d;"/></g><g id="BRT.-3"><path d="M793.888,187.324c-0.25,3.028 -2.027,6.143 -0.459,9.108c3.155,5.963 17.891,10.221 26.189,11.896c5.029,1.015 18.077,-0.197 20.733,3.714c1.604,2.362 -9.022,1.979 -10.776,1.834c-11.487,-0.95 -15.183,-1.884 -15.761,5.113c-0.116,1.405 -0.576,2.995 0.521,4.367c17.36,21.705 57.908,0.767 83.487,12.513c12.914,5.931 16.129,16.678 20.284,25.055c5.267,10.617 14.296,20.085 16.681,31.074c1.072,4.936 0.598,12.54 -1.138,17.318c-0.457,1.257 -1.999,4.319 -1.043,5.726c3.12,4.595 16.068,0.063 19.531,-1.225c0.328,-0.122 5.189,-1.551 5.569,-0.56c0.698,1.822 6.686,8.91 5.214,10.431c-3.445,3.561 -21.58,-2.914 -17.805,5.432c0.776,1.715 8.39,2.902 10.649,3.967c5.016,2.364 6.458,6.22 6.89,9.92c0.48,4.125 0.392,10.54 -2.919,13.964c-1.775,1.834 -7.765,1.828 -9.112,4.818c-1.617,3.59 0.793,7.628 -0.117,11.152c-1.503,5.822 -3.944,15.027 0.103,20.988c3.838,5.652 10.421,9.847 13.55,15.76c3.659,6.916 9.609,15.359 18.509,20.425c5.193,2.956 12.196,3.977 17.411,6.945c5.082,2.893 12.421,9.378 20.013,8.821c2.762,-0.202 5.611,-4.138 6.681,-5.438c5.139,-6.239 7.862,-13.702 14.217,-19.433c6.945,-6.262 10.494,-14.874 19.124,-20.22c11.672,-7.229 26.263,-12.07 39.843,-17.805c6.132,-2.59 10.766,-6.42 17.255,-8.683c8.466,-2.952 21.09,-5.932 31.332,-5.885c8.049,0.036 25.241,2.399 31.022,-2.269c2.09,-1.688 2.206,-3.626 3.62,-5.457c0.039,-0.051 3.898,0.035 4.216,0.011c3.437,-0.252 5.123,-1.194 6.547,-2.711c3.955,-4.21 -4.814,-7.305 -9.623,-8.467c-7.669,-1.855 -24.629,1.289 -25.639,-6.136c-0.22,-1.617 -0.084,-3.212 0.049,-4.823c0.141,-1.706 -0.393,-4.235 1.657,-5.505c13.758,-8.522 33.532,3.701 39.173,12.008c2.319,3.417 6.039,9.952 13.308,7.249c13.199,-4.908 -4.197,-16.599 -9.811,-22.064c-2.088,-2.032 -7.688,-5.266 -5.154,-7.964c2.244,-2.389 10.493,0.491 12.34,-1c4.466,-3.606 5.151,-8.793 8.878,-12.719c3.614,-3.806 12.844,-4.452 14.481,-9.019c2.98,-8.312 5.061,-21.316 3.428,-30.169c-1.072,-5.814 -11.511,-6.117 -7.821,-13.497c3.464,-6.928 9.671,-2.971 18.613,-1.722c1.235,0.172 0.128,-1.545 0.191,-2.317c0.117,-1.405 0.625,-2.978 0.364,-4.394c-0.594,-3.219 2.913,-15.775 7.547,-14.624c14.813,3.68 -13.244,-9.617 -13.456,-10.765c-1.985,-10.767 7.041,-15.992 12.246,-24.939c10.592,-18.21 -24.91,-37.317 -12.246,-34.982c5.551,1.024 18.974,-15.048 19.903,-16.471c1.581,-2.419 38.931,-25.978 36.074,-29.147c-10.174,-11.287 -27.148,-4.411 -41.965,-4.115c-4.707,0.094 -9.475,4.182 -14.012,4.9c-4.265,0.676 -9.93,10.374 -17.642,7.268c-3.37,-1.357 -15.63,15.29 -22.82,17.576c-3.442,1.094 -8.793,3.12 -11.86,0.135c-4.925,-4.793 6.517,-6.201 10.268,-8.137c1.676,-0.865 3.181,-3.62 0.27,-4.324c-13.085,-3.163 -30.585,1.772 -43.717,2.358c-4.71,0.21 -12.194,3.005 -17.06,1.045c-1.999,-0.805 -1.55,-3.31 -1.457,-4.444c0.401,-4.846 9.673,-6.631 16.105,-7.844c10.328,-1.946 20.836,-0.693 31.528,-1.279c11.922,-0.653 22.197,-3.619 32.98,-6.034c4.29,-0.96 11.422,-2.344 13.865,-4.944c1.071,-1.141 -2.821,-3.726 -3.961,-4.569c-6.859,-5.078 -13.333,-4.071 -20.96,-7.143c-6.631,-2.671 -0.407,-9.468 -6.075,-12.347c-7.434,-3.777 -18.846,-6.367 -27.064,-9.318c-9.251,-3.321 -17.179,-8.608 -27.137,-11.016c-7.627,-1.843 -14.169,-0.122 -21.434,0.54c-8.604,0.784 -16.933,0.903 -25.584,0.976c-3.481,0.029 -12.873,-2.116 -14.387,0.858c-0.734,1.442 -1.925,3.57 -1.25,5.245c1.52,3.771 11.58,8.675 3.233,11.721c-2.618,0.955 -6.614,1.327 -9.731,0.573c-3.684,-0.89 -6.684,-5.716 -9.28,-7.637c-6.116,-4.527 -23.214,-4.269 -27.977,0.655c-0.803,0.831 -2.249,2.915 -0.314,3.894c8.439,4.27 20.012,3.084 26.348,10.147c0.977,1.088 4.978,6.976 2.74,8.119c-1.772,0.905 -8.275,-1.351 -9.503,-2.087c-4.817,-2.884 -14.528,-7.465 -21.895,-5.935c-0.952,0.198 -1.469,2.689 -1.004,3.375c2.454,3.614 8.088,2.32 7.698,7.033c-0.466,5.633 -10.131,5.012 -14.317,8.28c-1.282,1.001 -2.871,3.124 -5.402,3.394c-11.513,1.229 -19.798,-16.709 -33.521,-13.607c-8.379,1.893 4.113,22.121 -13.624,17.862c-4.937,-1.186 -8.813,-12.363 -9.378,-15.432c-0.209,-1.13 -0.403,-4.082 -2.32,-4.854c-5.431,-2.188 -21.778,1.859 -25.527,3.844c-1.42,0.752 -12.454,-1.03 -14.587,-1.207c-8.386,-0.693 -17.021,0.06 -23.805,2.706c-3.516,1.372 -9.075,6.734 -3.9,9.111c2.432,1.116 9.139,2.357 7.915,4.763c-1.653,3.248 -12.22,5.12 -16.049,7.616c-10.961,7.146 -29.392,13.885 -37.442,22.207c-6.113,6.319 17.061,2.449 14.241,8.954c-3.697,8.528 -28.298,10.327 -35.069,10.803c-6.503,0.457 -16.222,6.654 -22.467,7.32c-5.181,0.553 -16.257,13.796 -16.257,13.796Z" style="fill:#3cbef0;"/><path d="M918.372,982.059c19.627,24.231 8.893,16.734 -5.267,23.38c-15.204,7.136 16.687,34.387 19.808,30.006c0,0 -17.395,28.043 -15.436,36.658c0.525,12.485 6.832,20.723 19.057,24.614c-11.2,-1.168 32.264,-0.89 27.974,0.161c-12.094,9.292 -11.435,73.436 -1.525,73.474c20.104,0.077 18.211,16.419 5.719,27.756l-18.46,20.646c-1.158,40.317 -46.622,36.335 -26.975,12.503c-4.075,-10.777 -53.154,-37.139 -71.15,-32.794c-19.471,14.743 -51.089,157.133 -43.483,202.866c2.103,-5.253 -4.856,17.185 -7.842,55.519c-2.244,-0.946 -4.442,-1.806 -6.575,-2.519c-7.576,-2.534 -14.338,-3.216 -19.5,0.708c-13.037,47.409 47.592,99.193 98.104,66.018c-23.743,5.318 -60.108,-36.487 -44.864,-45.337c24.652,-14.311 29.848,-43.031 13.13,-45.872c24.249,-26.622 35.023,-42.782 25.088,-42.862c0,0 15.586,-22.744 22.58,-29.509c39.131,-2.537 48.69,-12.034 34.938,-42.131c-9.012,-9.525 21.121,18.61 41.685,-16.536c5.832,-11.556 17.654,-20.058 31.221,-42.442c-4.14,-25.012 2.78,-35.795 43.564,-49.111c19.288,6.768 35.277,-28.337 39.969,-84.332c71.765,-57.657 3.765,-83.94 -95.738,-109.043c-3.649,-44.745 -40.308,-52.718 -57.579,-47.867c-4.96,12.386 -2.38,4.138 -8.443,16.046Z" style="fill:#3cbef0;"/></g><g id="UTC"><path d="M1338.68,695.787l-13.044,-0.106c-5.063,-14.834 -4.208,-30.073 0.578,-48.656l21.215,2.95c-5.02,13.974 -10.187,30.013 -8.749,45.812Z" style="fill:#f6c49f;"/><path d="M1343.75,507.099c-7.298,0 -12.966,0.494 -19.162,2.381c-2.394,0.73 -1.935,5.502 -4.112,6.166c-1.535,0.467 -4.698,0 -5.472,1.506c-3.288,6.397 3.951,14.678 1.945,20.95c-1.044,3.263 -6.736,1.954 -5.164,6.939c0.437,1.388 3.918,2.021 5.055,2.254c7.988,1.635 15.214,-3.084 21.866,-6.419c2.917,-1.462 7.324,-0.826 8.663,-5.115c1.349,-4.319 -2.262,-7.913 -1.233,-12.004c0.948,-3.773 8.123,-7.224 5.577,-12.254c-0.692,-1.367 -3.679,-2.82 -5.068,-3.166c-2.413,-0.6 -4.92,-2.042 -7.159,-2.807c-3.475,-1.187 -8.958,-1.287 -12.169,-1.287" style="fill:#f6c49f;"/><path d="M1358.48,465.568c-9.941,7.315 -11.935,24.946 -3.555,33.223c2.144,2.118 2.889,5.643 5.251,7.173c5.044,3.267 14.243,7.129 14.243,13.51c0,7.89 -5.344,7.694 -11.334,11.528c-2.255,1.443 -2.843,6.868 -3.297,9.209c-0.457,2.355 -0.817,6.123 1.467,7.602c2.909,1.884 8.335,-0.788 7.015,4.356c-0.647,2.523 -14.542,6.984 -12.947,10.136c1.029,2.031 14.608,-1.329 16.234,-1.6c10.441,-1.74 20.515,-1.145 30.899,-3.745c1.219,-0.305 8.698,-4.391 9.193,-5.385c1.38,-2.767 -2.263,-4.001 -3.609,-5.251c-1.141,-1.061 5.525,-5.155 4.623,-6.937c-0.889,-1.755 -1.819,-5.685 -3.333,-6.81c-2.186,-1.623 -10.571,-0.598 -11.391,-3.184c-0.678,-2.139 2.685,-8.672 1.434,-9.907c-4.165,-4.114 -7.749,-9.246 -11.951,-13.397c-4.214,-4.161 -10.637,-6.345 -12.303,-12.883c-0.274,-1.078 10.411,-11.653 9.039,-14.363c-1.349,-2.664 -16.101,0.755 -18.153,-2.321c-3.136,-4.702 8.008,-5.921 8.008,-10.465" style="fill:#f6c49f;"/><path d="M1210.31,360.31c-1.95,1.253 -3.915,2.484 -5.85,3.759c-0.846,0.558 -2.432,2.199 -2.76,3.133c-0.305,0.872 -0.851,1.373 -0.851,2.386c0,9.034 10.139,0.076 12.898,5.525c2.549,5.036 -4.661,4.151 -6.71,6.064c-1.124,1.05 -0.925,3.56 -0.925,4.961c0,1.27 -0.023,2.094 0.763,3.129c15.742,20.733 52.843,20.219 68.666,0.402c3.016,-3.779 7.055,-6.671 8.279,-11.54c1.978,-7.872 -6.976,-26.502 -17.108,-24.017c-5.008,1.228 -10.055,5.903 -14.652,8.164c-7.362,3.62 -14.575,0.251 -21.675,2.655c-2.489,0.842 -3.007,4.614 -5.507,5.83c-2.581,1.256 -4.465,-9.059 -6.055,-10.63c-2.568,-2.536 -8.513,0.179 -8.513,0.179Z" style="fill:#f6c49f;"/><path d="M1351.53,706.908c-106.373,106.157 -141.784,211.66 -14.009,273.557c23.201,-19.542 41.24,9.906 76.855,-16.153c0.691,-13.073 -3.115,-28.191 -6.434,-39.452c13.495,-6.057 7.264,-16.771 -5.917,-31.867c22.341,1.996 37.794,-7.727 32.944,-34.905l-106.527,-73.553l-0.567,-12.076l62.178,-33.096l-6.503,-26.324l-32.02,-6.131Z" style="fill:#f6c49f;"/></g><g id="CET1"><path d="M1474.71,695.639c14.516,-5.336 21.91,16.89 8.883,26.501c0,0 13.483,10.139 11.469,10.111c-13.014,22.045 -20.613,42.877 -14.629,74.215c15.274,8.531 41.537,24.456 52.15,12.174c19.543,10.634 42.951,24.364 66.279,33.479c-1.514,2.892 1.203,20.684 -1.699,33.238c-34.444,-0.351 8.586,81.422 29.556,88.434c-3.449,0.246 -36.527,-3.796 -40.658,6.674c-3.429,8.691 5.059,47.498 15.374,50.147c-27.796,-6.863 -36.203,19.965 -38.33,38.936c-1.013,9.027 16.005,7.729 16.005,7.729l4.539,32.921l13.514,-1.22l0,15.822l-14.483,0.313l-0.721,27.847l10.739,9.072c19.321,1.149 22.957,9.302 -0.889,5.657l-19.602,1.788l0.72,32.057l-7.292,0.152l-0.639,56.762c2.01,4.605 -17.252,3.687 -29.227,-0.614c-15.743,-0.468 -32.682,-81.749 -39.78,-105.43c35.99,-53.263 4.934,-104.41 -22.707,-130.228c13.773,-36.939 6.602,-47.266 -14.254,-45.398c-17.803,12.282 -9.252,-24.597 -44.656,-12.466c0.048,-8.263 -2.976,-25.422 -6.434,-39.452c16.383,-8.737 0.051,-20.041 -5.917,-31.867c14.406,1.17 39.788,-3.228 32.944,-34.905c4.937,0.291 -102.951,-68.084 -106.527,-73.553l-0.567,-12.076l62.178,-33.096l-6.503,-26.324c30.092,-15.838 47.711,-21.55 91.164,-17.4Z" style="fill:#fff100;"/><path d="M1561.89,139.861c-5.011,1.981 -19.143,10.524 -5.899,13.561c4.96,1.138 10.937,0.687 14.845,2.48c2.022,0.927 -0.22,2.296 1.016,3.43c4.024,3.69 27.683,3.617 35.301,2.884c24.439,-2.352 18.767,-15.028 2.637,-19.902c-3.497,-1.056 -13.108,-1.073 -15.025,-1.952c-2.381,-1.093 -0.214,-4.21 -4.231,-5.131c-7.744,-1.776 -10.992,3.352 -18.041,4.154c-2.088,0.238 -8.592,0.654 -10.695,0.172c-0.604,-0.138 -3.663,-1.174 -4.432,-0.804c-0.848,0.407 -1.384,3.368 -2.098,3.368" style="fill:#fff100;"/><path d="M1535.04,145.747c-1.295,5.883 0.213,13.331 -13.829,13.331c-2.583,0 -6.105,0.438 -7.556,-0.723c-3.284,-2.63 -0.971,-5.639 -3.303,-8.021c-5.023,-5.13 -21.49,0.33 -23.673,3.966c-0.622,1.037 -1.016,3.433 -0.38,4.508c2.489,4.208 9.05,17.465 16.399,18.669c12.099,1.983 18.57,-10.199 26.694,-1.647c4.803,5.056 -20.434,5.124 -16.64,11.539c1.031,1.742 7.84,2.451 9.11,4.598c2.463,4.164 -0.266,12.832 8.428,14.257c1.242,0.204 6.354,1.791 7.874,0.945c4.677,-2.603 4.563,-7.856 6.078,-11.069c3.366,-7.135 16.245,-14.322 19.585,-20.021c1.204,-2.055 4.808,-6.587 2.513,-9.08c-1.462,-1.587 -12.841,-4.639 -16.291,-6.455c-7.516,-3.956 -15.009,-14.797 -15.009,-14.797Z" style="fill:#fff100;"/><path d="M1590.04,182.134c-5.373,0 -12.104,-1.172 -16.107,0.262c-1.866,0.669 -1.354,3.096 -1.354,4.252c0,6.119 20.213,10.885 28.182,4.412c4.625,-3.757 -9.977,-6.261 -9.977,-7.863" style="fill:#fff100;"/><path d="M1338.68,695.787c13.355,11.842 29.997,3.625 49.75,-5.613c9.73,-44.964 85.459,-81.18 98.688,-53.828c11.609,13.115 58.789,38.315 43.656,50.991l23.381,-20.162l-53.108,-42.829c0.16,-11.231 1.277,-18.597 9.756,-12.084l49.728,38.173c-1.352,8.241 -0.3,14.129 4.103,16.74l26.053,-14.078l-3.601,-30.471c-5.977,-1.394 -12.178,-6.851 -18.597,-16.277c14.66,-17.221 24.917,-35.748 28.365,-60.181c3.023,-30.696 -16.531,-37.644 -46.382,-36.559c-21.676,5.905 -36.363,14.304 -64.913,6.926c15.29,-43.734 -25.521,-60.314 -14.512,5.408c-54.462,-6.537 -20.276,41.626 -111.875,59.753l30.688,26.895l-3.696,25.43l-38.01,-4.493c-21.567,-5.746 -35.404,12.57 -21.94,17.497l21.215,2.95c-4.81,11.908 -10.127,32.348 -8.749,45.812Z" style="fill:#fff100;"/><path d="M1601.66,373.949c-9.167,-30.204 -10.15,-38.418 -29.151,-45.119l3.614,-5.331c11.482,15.742 32.005,13.797 40.976,-4.757c8.665,-5.661 17.205,-5.784 25.521,3.959l14.04,-13.421c-36.739,-29.587 -119.65,-6.683 -163.568,81.193c-41.526,20.131 -64.051,46.779 -40.618,79.265c10.7,4.652 20.738,-0.893 34.23,-11.251c12.412,11.704 16.792,28.196 18.483,46.291c22.639,-3.987 35.81,-14.525 32.64,-39.21c25.367,-10.414 22.382,-19.624 7.031,-22.618c-7.201,-12.086 -4.563,-21.26 5.612,-29.693c20.464,-12.584 28.136,-19.749 25.176,-25.43c5.511,-14.777 12.967,-13.832 26.014,-13.878Z" style="fill:#fff100;"/></g><g id="EET2"><path d="M1636.62,450.28c-8.551,8.23 -4.197,35.155 -1.054,43.896c-5.932,0.511 -17.866,6.747 -16.075,6.126c1.807,9.322 -20.26,26.937 -24.417,19.547c0,0 4.527,17.902 1.777,26.319c18.889,-5.476 37.867,-5.594 54.841,3.142c16.09,-20.81 26.278,-16.396 41.812,10.649c51.226,-4.666 44.308,25.674 20.869,35.279c11.257,5.074 -3.201,27.913 -28.496,9.896c-26.745,0.791 -38.985,-5.646 -40.307,12.828c-5.429,-0.174 -9.324,5.065 -11.992,14.633c-4.721,6.405 -4.126,11.565 -1.492,16.248c-40.996,1.541 -42.534,43.403 -37.914,67.999l-29.541,-49.667l26.053,-14.078l-3.601,-30.471c-7.427,-0.165 -13.528,-6.01 -18.597,-16.277c15.298,-16.175 24.767,-37.231 28.365,-60.181c3.201,-20.411 -9.122,-36.195 -31.558,-36.232c11.264,-25.544 16.277,-49.121 34.909,-29.719c-2.707,-6.173 -15.316,-32.913 36.418,-29.937Z" style="fill:#b4da9d;"/><path d="M1601.66,373.949c-6.316,-22.974 -11.829,-38.475 -29.151,-45.119l3.614,-5.331c10.857,15.27 31.478,13.394 41.279,-4.953c9.221,-6.774 16.558,-6.135 25.218,4.155c0,0 -7.493,7.027 -1.224,20.183c17.625,36.989 35.249,77.632 -10.193,98.909c-52.24,24.46 -83.095,-16.975 -28.673,-49.244c12.188,-2.203 6.789,-20.974 -0.87,-18.6Z" style="fill:#b4da9d;"/><path d="M1626.72,973.791c-21.7,-1.784 -35.075,-1.862 -40.658,6.674c-3.616,5.529 -0.615,43.67 15.374,50.147c-29.942,-8.717 -39.473,27.99 -38.33,38.936c1.056,10.118 16.494,13.511 16.005,7.729c-0.035,-0.412 2.737,33.575 4.539,32.921l13.514,-1.22l0,15.822l-14.483,0.313l-0.721,27.847l10.739,9.072l-0.889,5.657l-19.602,1.788l0.72,32.057c0,0 -8.473,0.622 -7.189,-0.358c-1.012,9.027 -0.445,49.128 -0.742,57.272c-10.417,8.622 -30.463,-2.778 -29.227,-0.614c20.086,35.17 8.042,52.419 24.728,56.19c31.299,8.69 110.054,-18.509 109.584,-78.294c31.648,-15.916 26.896,-33.519 17.459,-52.688c34.679,-25.517 60.271,-32.857 46.911,-79.2c-49.219,31.761 -97.301,-40.584 -90.098,-50.176c13.088,-6.332 15.956,-25.492 0.95,-26.585c20.546,-35.501 7.016,-51.185 -18.584,-53.29Z" style="fill:#b4da9d;"/><path d="M1557.87,759.103c2.969,-5.371 -54.529,-33.993 -62.805,-26.852c-12.342,20.276 -22.215,40.872 -14.629,74.215c14.012,7.574 39.906,23.701 52.15,12.174c19.543,10.634 42.951,24.364 66.279,33.479c0.046,-4.025 7.103,-3.907 7.103,-3.907l0.677,-15.931l102.518,-0.725l1.444,-20.472l-20.693,-34.774c-2.553,-1.539 -0.188,-9.462 -0.188,-9.462c19.214,-3.141 30.164,-8.275 16.879,-19.254l17.013,-6.727l-2.724,-11.086l19.283,-11.149l9.598,-24.3l-45.971,3.851l-6.731,9.166c0.397,10.626 -2.813,20.519 -7.795,30.051c-3.604,15.365 -15.679,16.363 -32.612,9.122c-9.757,9.959 -33.062,5.924 -48.288,-2.908c-35.007,-20.308 -44.854,-8.158 -50.508,15.489Z" style="fill:#b4da9d;"/></g><g id="MSK3"><path d="M1757.92,918.358c4.238,7.055 -28.443,-27.516 -42.673,-58.711c-4.682,-10.264 -7.367,-20.161 -6.082,-28.091c-7.456,-0.28 -101.464,-0.829 -102.518,0.725c-2.085,1.157 -0.677,15.931 -0.677,15.931c-4.507,0.192 -6.653,1.61 -7.103,3.907l-1.699,33.238c-29.611,-2.893 -3.17,69.243 29.556,88.434c27.782,1.47 36.616,22.041 18.584,53.29c18.864,2.821 6.133,23.847 -0.95,26.585c-5.939,22.287 50.06,79.647 90.098,50.176c-17.07,8.081 -28.594,-75.285 32.216,-97.739c13.625,2.111 66.808,-82.937 56.885,-87.544c1.005,-1.786 -66.009,18.229 -65.637,-0.201Z" style="fill:#3cbef0;"/><path d="M1808.08,1116.04c0,0 -8.156,3.213 -11.529,5.869c-6.955,5.477 -15.902,16.717 -23.589,19.538c-1.614,0.592 -7.44,3.058 -8.063,4.565c-4.078,9.855 0.204,23.316 -1.337,34.181c-1.222,8.614 -7.095,16.185 -8.537,25.136c-3.702,22.967 14.965,31.401 30.539,26.706c2.916,-0.879 7.3,-1.397 9.573,-4.126c6.183,-7.422 3.673,-29.498 4.761,-39.162c1.738,-15.441 11.319,-27.072 17.7,-39.711c5.116,-10.135 0.661,-15.671 -4.001,-24.087c-1.505,-2.717 -5.517,-6.14 -5.517,-8.909Z" style="fill:#3cbef0;"/><path d="M1732.19,847.051l-21.587,-35.967l-20.693,-34.774c-2.271,-1.29 -1.803,-4.893 -0.188,-9.462c19.623,-2.969 29.12,-8.434 16.879,-19.254l17.013,-6.727l-2.724,-11.086l19.283,-11.149l9.598,-24.3l-45.971,3.851c-22.348,11.409 -48.557,9.63 -76.487,1.98c-3.242,0.458 -18.879,-41.702 -13.538,-46.997c9.433,-9.351 20.314,-4.923 13.83,-6.268c-2.9,-6.702 1.974,-10.214 5.976,-14.303c2.65,-9.484 6.38,-15.277 11.992,-14.633c-0.167,-18.543 17.159,-13.35 40.307,-12.828c20.572,11.118 35.584,6.779 28.496,-9.896c35.723,-20.972 11.697,-39.784 -20.869,-35.279c-17.163,-31.253 -26.476,-25.309 -41.812,-10.649c-16.479,-8.372 -35.076,-8.132 -54.841,-3.142c1.207,-7.565 0.629,-16.328 -1.777,-26.319c12.308,0.437 20.296,-6.332 24.417,-19.547c-5.857,-0.255 21.582,-9.646 16.075,-6.126c-3.143,-8.741 -7.497,-35.666 1.054,-43.896l-5.418,-8.487c14.539,-6.759 22.832,-15.645 26.334,-26.578c5.901,-18.423 -1.8,-42.659 -16.141,-72.331c-0.101,-2.74 -8.484,-9.146 1.224,-20.183c2.385,-1.728 12.54,-13.517 14.04,-13.421c40.906,1.358 159.731,86.577 8.37,46.345c27.232,14.651 22.301,20.434 22.721,35.781c21.454,13.985 43.005,9.971 14.352,-4.254c-0.777,0.308 3.561,-5.734 3.561,-5.734l28.918,9.668l-6.264,-12.903l21.451,-13.95c0,0 11.122,-1.934 14.959,8.755c4.799,-12.121 -6.306,-45.312 -6.162,-38.423l21.176,1.975c4.764,3.9 5.727,9.307 6.457,9.491c-21.362,3.331 -15.125,18.3 7.409,12.332c-11.522,-3.211 41.007,-32.269 52.09,-27.942c30.094,15.425 78.45,5.592 39.805,-23.057c11.809,1.271 39.795,12.558 52.15,17.106c13.145,30.785 -1.966,41.148 -44.443,62.962c18.857,44.578 -31.002,52.681 -65.637,51.49c37.351,49.556 17.383,98.759 -35.152,122.602c-32.684,15.769 -19.42,24.526 0.158,48.308c-9.88,18.792 -7.556,19.237 8.529,39.048c-54.796,-29.362 -75.482,-5.278 -35.156,31.032c2.446,6.388 26.707,91.33 30.081,84.687c-5.272,2.179 33.921,43.921 29.694,46.915c4.032,5.005 7.94,11.455 7.94,11.455c22.576,-3.493 50.742,21.671 -3.472,33.947c-4.634,-5.586 8.646,21.282 8.646,21.282c-24.167,16.833 -50.793,26.741 -78.548,33.47c-2.913,-26.2 -12.446,-47.62 -28.105,-64.617Z" style="fill:#3cbef0;"/><path d="M1806.83,-23.343c-9.315,12.91 -12.056,17.6 -25.054,23.924c-2.228,1.084 -5.091,5.662 -3.689,8.521c1.151,2.346 7.128,1.376 9.55,1.376c8.566,0 22.059,-10.751 25.822,-18.299c3.776,-7.573 -6.629,-15.522 -6.629,-15.522Z" style="fill:#3cbef0;"/><path d="M1900.4,-18.31c-9.565,1.96 -9.336,1.56 -14.02,3.767c-3.36,1.582 -8.674,13.097 -5.117,16.61c11.344,11.206 19.137,-20.377 19.137,-20.377Z" style="fill:#3cbef0;"/><path d="M1823.91,285.952c5.692,6.602 12.51,11.056 22.664,14.054c2.17,0.641 5.385,0.068 7.472,0.684c0.969,0.286 10.263,1.283 11.037,0.833c1.786,-1.037 -0.761,-5.941 -1.552,-6.869c-3.168,-3.717 -10.992,-11.168 -7.271,-15.629c5.317,-6.376 10.515,-10.695 19.321,-15.943c6.217,-3.705 9.359,-9.224 15.932,-13.132c14.975,-8.905 34.3,-15.53 51.727,-22.375c7.275,-2.858 16.393,-3.535 23.916,-6.897c4.045,-1.808 10.243,-11.281 7.574,-14.433c-1.861,-2.199 -13.698,-3.17 -17.906,-2.403c-4.442,0.809 -7.068,4.186 -10.921,5.665c-6.386,2.449 -13.432,4.677 -21.057,5.425c-7.331,0.718 -14.927,0.311 -21.959,1.949c-13.612,3.17 -23.081,10.034 -33.021,15.851c-4.761,2.787 -11.433,5.369 -13.593,9.404c-1.651,3.086 -1.996,6.559 -3.36,9.737c-1.43,3.332 -8.342,5.904 -10.973,8.965c-2.123,2.471 0.909,6.186 -1.175,8.611c-4.59,5.34 -16.855,16.503 -16.855,16.503Z" style="fill:#3cbef0;"/></g><path id="IRST330" d="M1860.01,867.333l35.692,-39.338l12.821,-24.102c18.311,-1.191 7.224,-37.215 -6.648,-76.538c13.825,-29.857 -3.217,-40.914 -34.802,-43.112c-12.012,-0.824 -18.247,3.316 -22.067,9.531c-20.001,-19.735 -33.775,-30.865 -44.451,-46.589c-61.213,-31.239 -76.293,-10.394 -34.599,32.727c2.46,43.545 46.669,131.227 67.715,143.057c37.109,9.226 35.066,19.839 -5.438,33.876l10.612,21.353l21.165,-10.865Z" style="fill:#70d2f8;"/><path id="YEKT5" d="M1801.11,648.88c11.934,15.213 34.451,36.636 43.894,44.894c11.712,-3.138 4.178,-9.263 22.067,-9.531c38.092,2.843 46.449,23.198 34.023,43.706c3.775,14.261 17.579,48.494 16.008,66.922c-0.442,5.183 -4.169,8.372 -8.581,9.022c4.885,3.163 40.81,-6.22 54.482,13.125c26.446,-2.971 27.296,-9.489 12.369,-33.933c21.725,1.919 42.345,-28.872 34.545,-63.581c30.818,10.675 21.927,-38.991 -3.141,-45.994c8.47,-3.851 -7.656,-15.48 -30.781,-27.799c-34.49,-18.373 -84.548,-38.28 -91.779,-36.195c5.996,-14.168 22.569,-21.365 46.151,-23.942c-7.986,-22.268 -17.896,-38.379 -31.843,-41.568l7.312,-22.43l75.55,-16.197c9.033,-13.401 8.415,-25.414 1.189,-36.477c24.519,8.756 43.582,1.311 54.944,-29.004c26.139,4.401 51.42,2.674 72.695,-10.496c-12.868,3.141 -9.665,-25.797 2.567,-36.381c-20.367,-16.531 -24.676,-42.188 -32.167,-67.756c-27.262,-5.85 -37.88,-11.769 -13.03,-17.901c1.982,-5.386 -2.73,-10.226 -11.174,-14.762c2.234,-34.208 -43.081,-11.394 -9.047,5.448c-54.37,-26.906 -55.087,30.156 -3.41,33.373l2.143,17.89c-13.916,-28.537 -31.885,-14.359 -51.695,19.235l-24.171,-7.999c25.331,1.28 37.258,-7.959 30.518,-31.846c9.122,-95.214 -64.59,-68.663 -37.366,11.356c0,0 -16.64,-14.719 -25.727,-15.589c7.554,28.506 7.599,34.538 -44.443,62.962c17.482,42.137 -27.147,51.616 -65.637,51.49c43.572,62.082 2.228,104.375 -35.152,122.602c-26.224,12.787 -26.63,24.362 0.158,48.308c-9.634,15.072 -7.736,18.314 8.529,39.048Z" style="fill:#f37923;"/><path id="IST530" d="M1981.21,841.899c24.146,-6.814 22.609,-7.628 21.199,19.948l6.005,21.376l30.843,67.267c4.338,-5.62 10.121,-10.215 10.121,-10.215c18.52,44.235 41.474,28.876 10.506,-11.071c0,0 1.546,-27.25 2.29,-33.767l65.659,-62.972c4.945,5.98 12.269,2.786 22.465,-11.481l12.398,16.473c19.48,-28.118 31.063,-55.659 46.871,-60.946l-20.548,-13.291c-41.531,22.1 -77.808,23.142 -119.354,-6.759c-16.975,-7.032 -18.319,-11.733 -14.845,-32.364l-26.09,-24.228c0.995,14.036 -0.482,23.721 -18.815,19.635c5.982,25.964 -5.774,62.91 -34.545,63.581c16.388,26.012 9.221,31.286 -12.369,33.933l18.209,24.881Z" style="fill:#f4a770;"/><path id="OMST6" d="M2026.16,663.962c32.821,-11.359 47.239,-26.627 34.513,-47.66c15.291,4.268 24.344,-2.642 26.299,-22.269c8.734,10.015 22.755,-3.12 37.785,-20.994c-42.012,-10.557 -74.825,-29.834 -97.65,-58.02c3.999,-17.26 4.722,-35.25 -0.785,-54.629c-14.424,12.498 -29.027,14.062 -43.746,8.512c8.024,9.619 2.889,35.907 -1.189,36.477c0,0 -50.552,9.559 -76.089,16.412l-6.773,22.215c12.161,3.773 22.499,19.429 31.843,41.568c-26.128,0.655 -40.655,9.22 -46.151,23.942c50.204,15.606 96.657,33.508 122.56,63.994l19.383,-9.548Z" style="fill:#f6c49f;"/><g id="NOVT7"><path d="M2363.24,1084.74c-18.703,-12.249 -40.915,-18.324 -62.69,-18.324c-9.41,0 -20.495,-1.16 -25.449,9.397c-0.495,1.055 3.286,1.406 3.847,1.442c6.064,0.391 11.878,0.986 17.857,2.343c8.226,1.867 16.484,2.832 24.638,5.153c7.335,2.088 14.546,5.112 22.157,5.828c5.685,0.535 12.621,3.02 18.313,1.981c3.4,-0.621 1.327,-7.82 1.327,-7.82Z" style="fill:#f8f300;"/><path d="M2175.51,863.396c1.487,31.355 13.136,27.002 27.804,12.042l13.668,82.181l15.876,24.581c24.815,47.647 43.025,13.2 13.3,-15.13l-20.315,-18.749c-4.872,-38.931 -1.912,-59.062 21.995,-25.802c32.204,49.786 77.287,-2.164 45.732,-45.863c-24.93,-15.037 -24.29,-29.008 0.24,-42.524c-18.806,-19.534 -37.983,-17.285 -57.457,2.382c-25.796,-13.285 -41.335,-32.048 -26.778,-60.003c-13.925,4.221 -24.804,28.002 -46.871,60.946l12.806,25.939Z" style="fill:#f8f300;"/><path d="M2186.51,970.34c1.559,7.464 4.689,14.429 8.017,20.873c3.742,7.247 7.001,14.064 11.452,20.805c5.784,8.76 13.43,15.194 20.083,22.695c6.537,7.371 12.687,16.19 19.746,22.686c2.232,2.054 4.642,2.625 7.103,3.956c6.025,3.258 22.056,11.328 22.056,-4.141c0,-1.416 0.206,-3.144 0,-4.54c-1.061,-7.17 -7.058,-13.858 -10.559,-19.226c-3.339,-5.118 -6.972,-10.921 -11.234,-14.868c-4.7,-4.352 -9.993,-8.141 -14.436,-12.962c-3.064,-3.324 -5.786,-7.255 -9.04,-10.252c-2.209,-2.036 -4.929,-3.222 -7.053,-5.396c-2.896,-2.965 -5.336,-6.522 -8.652,-8.899c-5.965,-4.275 -13.601,-12.1 -20.506,-12.1c-1.527,0 -6.977,1.369 -6.977,1.369Z" style="fill:#f8f300;"/><path d="M2145.22,587.775c1.444,20.794 11.681,32.472 34.502,31.109c22.131,30.196 34.743,31.92 31.223,-14.607c10.562,-18.265 11.273,-32.057 -8.531,-36.535c22.229,-23.556 26.251,-38.606 -11.241,-49.677c9.442,-11.051 15.34,-23.859 15.961,-39.284c16.067,1.2 31.334,-1.742 43.541,-20.537c19.17,11.305 26.25,7.968 12.84,-20.184c12.854,-9.255 20.509,-21.881 20.428,-39.525l-8.882,-40.207c9.857,1.159 7.353,-35.078 3.916,-34.81c17.032,-9.101 33.414,-19.139 51.261,-28.72c-14.2,-17.993 -19.998,-33.875 -14.61,-46.947c33.321,-22.087 31.169,-36.485 -11.343,-42.133c-49.173,-15.35 -111.945,1.254 -178.034,25.651c-0.1,22.609 -23.012,30.798 -60.226,29.945c-2.12,12.085 6.603,18.98 17.859,24.662c-8.936,4.806 -19.599,0.323 -30.961,-7.924c2.456,5.158 3.662,10.017 3.494,14.55c6.005,3.601 11.524,7.485 11.174,14.762c-14.76,4.562 -25.439,9.425 13.03,17.901c6.503,29.792 15.447,55.416 32.167,67.756c-7.86,4.503 -19.655,38.474 -2.567,36.381c-20.656,11.398 -45.881,15.671 -72.695,10.496c-2.952,7.622 -6.624,14.568 -11.386,20.492c3.714,12.009 4.332,29.682 0.973,54.629c23.268,29.663 56.102,48.757 97.465,58.295c4.105,9.097 10.934,14.003 20.642,14.461Z" style="fill:#f8f300;"/><path d="M2190.4,126.291c-5.119,1.606 -8.459,2.505 -12.083,4.383c-6.77,3.507 -10.495,7.37 -15.004,11.041c-2.214,1.803 -8.292,3.389 -9.492,5.347c-0.955,1.556 -1.506,5.906 2.895,6.816c7.055,1.458 12.049,-3.718 16.517,-5.116c2.368,-0.74 4.582,-2.377 7.726,-2.706c5.003,-0.524 13.257,-1.242 17.058,-2.827c3.922,-1.636 7.671,-4.792 10.008,-6.753c1.755,-1.473 -2.162,-2.854 -3.932,-3.827c-3.561,-1.958 -6.326,-3.791 -9.743,-5.204c-0.883,-0.365 -3.95,-1.154 -3.95,-1.154Z" style="fill:#f8f300;"/><path d="M2207.65,145.161c-4.532,0 -10.354,-1.333 -13.582,0.312c-4.854,2.475 -19.938,8.655 -17.674,13.34c0.591,1.223 6.444,2.601 8.338,3.336c6.612,2.566 14.506,5.628 22.413,6.402c1.961,0.192 6.63,1.025 8.778,0.461c13.355,-3.508 17.338,-10.561 10.076,-16.956c-1.042,-0.917 -2.48,-3.353 -4.528,-3.882c-4.371,-1.132 -7.62,4.177 -11.707,4.829c-0.809,0.129 -4.61,0.571 -5.175,-0.013c-0.479,-0.496 -0.772,-1.715 -0.382,-2.308c0.338,-0.512 3.443,-5.521 3.443,-5.521Z" style="fill:#f8f300;"/><path d="M2262.7,154.134c-3.017,0.628 -6.357,0.183 -9.047,2.078c-2.849,2.007 -5.608,6.922 -8.868,8.001c-4.182,1.385 -9.664,1.001 -13.66,3.816c-2.234,1.574 -7.765,5.095 -6.221,8.256c2.537,5.191 8.018,8.697 14.072,7.87c6.639,-0.906 10.976,0.462 17.414,-2.53c0.65,-0.302 4.087,-2.499 4.134,-3.518c0.12,-2.588 -5.533,-5.661 -4.772,-7.723c1.537,-4.163 8.514,-7.544 10.108,-11.724c1.098,-2.88 -3.16,-4.526 -3.16,-4.526Z" style="fill:#f8f300;"/></g><g id="CST8"><path d="M2396.18,863.543c-3.102,3.066 -5.714,5.185 -7.388,9.073c-4.299,9.987 2.532,28.851 13.807,30.274c4.093,0.516 8.668,1.64 12.228,3.81c0.638,0.388 5.512,5.158 6.478,3.656c1.875,-2.914 0.523,-7.5 -1.526,-9.864c-4.407,-5.088 -11.755,-6.34 -15.484,-12.321c-4.864,-7.799 1.841,-16.465 -0.144,-24.425c-1.283,-5.149 -7.971,-0.203 -7.971,-0.203Z" style="fill:#b7d89f;"/><path d="M2390.38,919.955c-4.308,3.934 -11.558,9.763 -13.15,15.968c-1.783,6.95 6.898,5.874 10.715,2.651c3.384,-2.856 9.251,-8.733 10.016,-13.285c0.577,-3.43 -7.581,-5.334 -7.581,-5.334Z" style="fill:#b7d89f;"/><path d="M2434.44,913.088c-0.967,8.184 -6.402,14.764 -15.404,13.545c-1.259,-0.171 -7.127,-4.755 -8.136,-3.788c-1.326,1.271 -0.23,7.005 0.738,8.281c6.767,8.911 22.724,2.634 29.753,-2.343c1.929,-1.366 3.945,-2.362 5.391,-4.279c5.085,-6.743 -12.342,-11.416 -12.342,-11.416Z" style="fill:#b7d89f;"/><path d="M2439.83,935.615c-2.386,1.619 -4.411,2.914 -6.585,4.666c-3.616,2.915 -6.874,6.803 -10.821,8.899c-3.105,1.65 -7.36,2.632 -10.055,5.337c-1.128,1.132 -2.836,4.824 -1.707,6.851c1.402,2.52 5.927,2.67 7.998,2.901c3.959,0.443 8.049,-0.608 11.994,0c4.639,0.716 13.519,6.939 16.7,-0.42c1.797,-4.156 3.321,-13.226 -0.523,-16.27c-1.858,-1.471 -7.001,-11.964 -7.001,-11.964Z" style="fill:#b7d89f;"/><path d="M2365.14,963.378c-8.431,3.071 -13.792,8.476 -20.593,14.295c-5.33,4.56 -12.26,6.244 -17.385,10.836c-2.569,2.302 -5.659,5.559 -8.626,6.966c-3.701,1.756 -7.437,1.996 -11.395,1.996c-2.205,0 -4.835,-0.815 -6.646,0.903c-4.818,4.571 -3.579,19.348 -0.143,24.562c2.165,3.285 5.769,5.693 8.882,7.566c7.798,4.689 15.638,9.509 23.092,15.018c4.591,3.392 10.067,10.955 16.352,8.709c5.213,-1.863 8.012,-11.359 9.8,-16.505c3.573,-10.285 14.302,-16.079 16.652,-27.462c1.686,-8.167 -8.578,-13.607 -6.81,-22.262c1.252,-6.128 10.432,-9.334 8.366,-16.773c-1.438,-5.18 -7.99,-8.982 -12.348,-8.982c-1.085,0 0.802,1.133 0.802,1.133Z" style="fill:#b7d89f;"/><path d="M2436.56,1000.18c-11.093,0.654 -24.345,3.456 -33.784,9.65c-3.672,2.41 -6.053,5.57 -9.091,8.556c-7.796,7.663 -11.708,13.055 -11.708,24.463c0,5.098 0.325,10.284 1.165,15.266c0.215,1.27 0.519,3.625 1.791,4.361c1.181,0.683 2.883,1.093 4.246,1.093c1.281,0 3.213,0.358 4.413,-0.143c4.065,-1.697 3.964,-6.274 4.487,-9.801c0.555,-3.739 2.007,-8.682 5.196,-11.066c3.299,-2.467 9.727,-0.847 11.705,2.489c0.579,0.978 1.048,3.247 2.202,3.817c0.836,0.412 1.118,-1.249 1.174,-1.695c0.77,-6.12 1.626,-16.791 -2.478,-21.898c-2.671,-3.323 -7.467,-1.499 -10.831,-2.648c-0.705,-0.241 -1.289,-1.755 -0.901,-2.527c1.094,-2.176 4.811,-3.217 6.807,-4.05c7.036,-2.939 13.945,-4.115 20.766,-7.958c2.322,-1.309 4.399,-2.432 5.931,-4.465c0.199,-0.264 1.46,-1.961 0.696,-2.327c-0.762,-0.365 0.878,0 0,0" style="fill:#b7d89f;"/><path d="M2466.6,1286.08l-0.192,-148.746c-12.116,-11.918 -40.03,1.478 -49.355,18.088l-41.882,33.238c-30.409,3.986 -41.166,27.64 -32.355,65.049l10.418,37.045c-6.959,22.97 6.448,34.742 38.968,20.689l74.398,-25.363Z" style="fill:#b7d89f;"/><path d="M2386.5,715.861c36.867,-27.286 35.649,-34.218 -0.246,-22.619l-13.327,-16.889c12.635,-1.919 22.231,-9.358 30.29,-19.59c6.155,-1.502 8.113,1.033 6.595,6.911c-11.387,14.489 -17.59,25.11 19.286,3.598l51.836,-30.277l3.019,0.179c-2.366,-16.599 0.382,-27.05 14.858,-23.407c29.194,-33.622 21.99,-40.092 -16.093,-23.526c-2.039,-15.596 -11.082,-23.267 -27.127,-23.012c-14.899,-59.473 -57.584,-58.211 -69.892,-5.503c-10.355,5.233 -24.483,4.906 -41.247,0.694c-18.229,7.944 -37.898,15.717 -51.329,8.503c-1.637,-7.709 -0.454,-15.289 5.649,-22.648c-0.107,1.809 23.045,-3.632 36.084,-11.359l11.184,-5.765c-4.684,-3.976 -8.666,-7.992 8.814,-13.202c14.31,-3.516 19.618,-7.853 5.121,-13.998c-8.807,-15.712 -5.53,-21.907 10.863,-17.772c-3.662,-13.321 0.142,-19.853 15.265,-16.091c-5.2,-19.75 -15.736,-28.933 -33.283,-24.238c-38.885,23.55 -52.954,16.34 -38.248,-11.8c-0.832,-27.055 -10.189,-42.765 -30.633,-35.515c-1.276,19.072 -8.786,31.5 -20.428,39.525c12.791,26.84 6.741,31.483 -12.84,20.184c-9.687,14.864 -24.163,21.772 -43.541,20.537c-1.612,14.651 -7.12,27.668 -15.961,39.284c32.742,8.808 35.597,25.606 11.241,49.677c19.073,4.17 18.161,18.201 8.531,36.535c2.674,37.509 -4.605,50.185 -31.223,14.607c-20.288,0.515 -32.508,-8.964 -34.502,-31.109c-10.719,-1.763 -17.04,-7.029 -20.642,-14.461c-16.275,19.568 -29.476,28.734 -37.6,20.719c-2.056,17.588 -9.769,26.606 -26.299,22.269c12.113,21.249 -2.413,36.45 -34.513,47.66l-19.383,9.548c9.796,3.743 16.389,12.666 21.956,26.359l26.09,24.228c-5.529,16.865 -0.581,27.653 14.845,32.364c38.085,28.236 77.829,31.111 119.354,6.759l20.548,13.291c-15.968,29.77 1.432,46.446 26.778,60.003c17.874,-18.835 36.822,-22.522 57.457,-2.382c81.465,7.43 151.733,-58.724 92.693,-118.271Z" style="fill:#b7d89f;"/></g><g id="JST9"><path d="M2284.3,397.229c-4.403,-14.827 -3.902,-12.679 -9.244,-38.901c13.219,-7.61 0.246,-36.986 3.916,-34.81l51.261,-28.72c-9.657,-1.884 -23.614,-41.358 -14.61,-46.947c2.318,-6.404 6.691,-7.187 19.887,-3.11c-2.369,5.2 -4.081,16.312 7.288,14.873l38.16,-1.398c18.79,14.11 25.546,12.487 42.694,-3.988l44.584,9.488c-3.274,28.133 -0.052,42.065 21.841,35.108c26.489,20.961 4.694,72.552 -13.713,66.732c0,0 25.413,8.51 21.031,26.499c5.331,-21.883 55.606,-40.53 60.884,-17.22c20.43,15.066 -9.197,80.415 -41.409,83.007c-20.463,-7.143 -51.57,42.883 -24.647,43.132c6.583,2.633 12.446,3.456 -3.388,10.458c-10.678,7.686 -10.628,8.693 2.596,17.22c30.592,-4.167 37.715,13.572 -5.309,36.567c1.698,12.087 -2.875,14.044 -3.405,25.022c-1.309,-12.34 -9.584,-21.59 -27.127,-23.012c-12.145,-53.238 -53.715,-62.432 -69.892,-5.503c-7.925,6.348 -24.204,5.967 -41.204,0.891c-15.023,6.92 -36.217,17.278 -51.372,8.306c-0.679,-4.476 -3.402,-17.56 5.649,-22.648c14.498,-0.107 47.268,-17.124 47.268,-17.124c-8.877,-2.472 -3.843,-11.924 8.814,-13.202c17.964,-4.518 13.829,-11.202 4.892,-13.675c-9.834,-16.524 -6.115,-22.825 11.092,-18.095c-6.479,-16.886 3.642,-21.114 15.265,-16.091c0.516,-5.09 -14.26,-31.524 -33.283,-24.238c-17.001,19.397 -63.233,23.542 -38.248,-11.8c0.128,-30.378 -13.491,-38.723 -30.271,-36.821Z" style="fill:#3bbeec;"/><path d="M2480.17,726.28c-1.75,0.054 -2.464,-0.074 -3.814,0.47c-1.685,0.677 -3.265,1.493 -4.332,2.964c-2.941,4.055 1.27,11.757 3.71,14.975c1.781,2.35 5.236,5.833 8.649,4.987c2.162,-0.535 3.329,-3.008 4.219,-4.776c2.41,-4.789 1.916,-8.793 -0.061,-13.429c-0.388,-0.908 -1.112,-2.454 -1.938,-3.068c-1.793,-1.331 -2.877,-1.764 -5.124,-1.764c-0.211,0 -1.309,-0.359 -1.309,-0.359Z" style="fill:#3bbeec;"/><path d="M2481.79,720.181c2.589,2.216 5.275,4.316 7.837,6.552c1.449,1.264 2.763,3.364 4.797,3.647c2.953,0.411 5.655,-0.837 8.53,-1.23c5.023,-0.686 9.516,-0.739 14.32,-2.658c8.534,-3.408 17.071,-6.472 25.27,-10.7c2.161,-1.114 4.693,-1.766 6.701,-3.141c3.826,-2.62 7.095,-6.216 10.221,-9.629c3.838,-4.189 8.154,-9.999 8.881,-15.994c0.891,-7.346 2.818,-16.643 0.375,-23.737c-1.178,-3.421 -3.453,-7.904 -5.763,-10.714c-0.73,-0.887 -2.464,-2.662 -1.62,-3.659c3.066,-3.621 6.121,-3.587 10.597,-3.587c3.298,0 5.882,0.657 9.028,1.501c6.658,1.785 14.077,1.42 20.305,-1.461c2.408,-1.114 3.727,-3.292 4.851,-5.608c0.064,-0.132 1.579,-2.069 1.205,-2.243c-0.277,-0.13 -0.491,-1.138 -0.645,-1.518c-0.57,-1.398 -1.612,-2.776 -2.425,-4.037c-1.048,-1.626 -1.883,-3.948 -3.236,-5.334c-0.888,-0.909 -2.689,-0.897 -3.86,-1.061c-3.031,-0.426 -6.44,-1.259 -9.221,-2.524c-3.522,-1.6 -7.449,-4.595 -10.184,-7.397c-1.093,-1.121 -2.57,-1.78 -3.584,-2.819c-0.294,-0.302 -0.702,-0.65 -0.905,-0.859c-0.039,-0.039 0.01,-0.809 -0.117,-0.694c-0.445,0.401 -0.79,1.9 -1.044,2.486c-0.876,2.019 -1.589,4.106 -2.329,6.188c-0.721,2.028 -1.722,3.924 -2.504,5.916c-1.257,3.201 -3.108,6.158 -4.618,9.239c-1.603,3.273 -4.369,6.693 -6.693,9.479c-1.116,1.338 -3.221,2.862 -3.568,4.718c-1.043,5.573 8.344,7.169 6.194,13.87c-0.814,2.538 -2.987,4.421 -4.392,6.576c-4.375,6.709 -9.59,12.819 -14.833,18.945c-3.579,4.182 -6.425,9.315 -10.935,12.602c-2.912,2.123 -6.994,1.671 -10.231,2.609c-1.552,0.449 -2.946,1.216 -4.298,2.085c-0.252,0.161 -1.17,1.065 -1.331,1.095c-1.782,0.332 -3.444,1.377 -4.991,2.345c-3.593,2.248 -7.732,5.441 -11.843,6.702c-3.278,1.005 -6.986,1.665 -10.12,2.932c-1.629,0.658 -2.969,1.72 -4.4,2.672c-0.313,0.209 0.615,-0.243 0.361,-0.243" style="fill:#3bbeec;"/><path d="M2443.03,691.152c-3.087,48.513 41.593,24.416 19.308,-10.491c-6.679,-3.779 -2.681,-6.931 4.065,-13.336c14.516,-5.185 18.207,-17.117 14.53,-30.33l-51.836,30.277c-1.286,21.201 4.507,26.77 13.933,23.88" style="fill:#3bbeec;"/><path d="M2480.62,1025.15c10.173,4.591 14.166,12.263 12.364,22.824c40.441,5.916 59.777,17.334 49.954,36.352c12.29,-3.874 20.348,-0.115 23.997,11.599l0.82,-58.114c-19.949,-8.25 -37.481,-7.454 -51.457,1.268c-5.683,-10.991 -11.375,-18.515 -19.82,-20.376c-8.64,-1.298 -13.874,0.905 -15.858,6.447Z" style="fill:#3bbeec;"/><path d="M2530.44,1113.31c-18.18,22.096 4.808,38.949 9.06,37.136c0,0 1.402,48.31 1.287,84.193l21.875,3.728l-0.266,112.177c-22.304,-33.6 -52.897,-60.846 -95.805,-64.469l-0.192,-148.746l16.275,-17.773c11.667,-17.625 28.535,-16.253 47.766,-6.246Z" style="fill:#3bbeec;"/></g><g id="EAT10"><path d="M2586.71,1087.62c8.103,-7.038 16.881,-5.577 26.016,0.355c27.66,29.784 44.807,21.602 9.976,-16.642c-15.5,-16.12 -33.603,-27.667 -54.947,-33.521l-0.82,58.114c6.477,-2.153 14.002,-3.377 19.775,-8.306Z" style="fill:#ef7b26;"/><path d="M2490.08,298.824c1.493,-0.971 5.397,-12.987 5.397,-12.987c12.972,6.349 33.02,8.261 60.229,5.683c-1.833,-24.085 33.664,-25.018 32.636,-9.352c-3.582,0.926 -17.806,22.39 -22.693,32.74c28.41,3.561 1.901,29.641 -17.142,37.98c10.514,35.333 48.597,21.334 60.014,40.714c-1.945,15.925 7.219,43.828 -4.691,49.713c9.395,2.1 12.793,7.386 11.731,15.055l-36.131,-2.426l-54.914,57.706l16.883,13.002c18.38,-27.821 33.537,8.677 21.47,37.744c-10.966,23.167 -24.045,41.875 -38.19,62.212c-11.66,12.297 -25.154,15.651 -40.724,10.566c-6.57,-16.045 4.804,-31.481 14.858,-23.407c13.507,-16.372 38.24,-46.205 -16.093,-23.526c-1.02,-9.09 3.98,-9.252 3.405,-25.022c36.102,-19.28 42.078,-40.259 5.309,-36.567c-11.502,-6.53 -14.983,-10.863 -2.596,-17.22c10.158,-7.657 14.249,-4.042 3.388,-10.458c-27.448,2.184 4.369,-53.102 24.647,-43.132c36.669,-6.447 58.169,-68.13 39.941,-82.635c-4.559,-12.401 -49.267,-11.91 -59.416,16.848c-2.34,-17.472 -11.807,-21.65 -21.031,-26.499c20.884,1.402 38.274,-43.696 13.713,-66.732Z" style="fill:#f37b24;"/><path d="M2580.18,515.333c-1.124,3.474 -1.388,7.073 -2.455,10.53c-0.878,2.844 -1.907,5.595 -2.845,8.41c-1.833,5.506 -2.44,12.041 -2.815,17.778c-0.198,3.017 0.346,6.234 0.118,9.066c-0.413,5.116 -1.203,10.152 -1.203,15.298c0,4.367 0.908,8.623 1.727,12.892c0.777,4.05 2.112,8.503 1.405,12.639c-0.199,1.163 -0.316,2.739 0.211,3.781c0.259,0.512 0.186,1.708 0.186,1.708c0,0 0.385,-1.079 0.749,-1.508c0.831,-0.981 1.638,-1.846 2.561,-2.762c2.843,-2.823 4.685,-6.105 5.302,-10.1c0.573,-3.717 0.426,-7.57 0.426,-11.331c0,-0.728 -0.948,-3.275 -0.469,-3.87c2.521,-3.129 10.027,-2.725 10.596,-7.25c0.382,-3.038 0.212,-7.225 -1.197,-10.004c-0.688,-1.355 -1.532,-2.906 -2.347,-4.184c-0.462,-0.725 -1.424,-1.428 -1.659,-2.264c-1.427,-5.067 -3.675,-9.974 -5.104,-15.086c-1.702,-6.091 -1.527,-12.436 -1.527,-18.728c0,-1.134 -1.66,-5.015 -1.66,-5.015Z" style="fill:#ef7b26;"/><path d="M2562.67,1238.37l-0.259,109.14l-0.007,3.037c43.544,14.392 76.352,12.325 83.764,-29.621c10.532,-18.491 19.83,-37.925 23.758,-59.115c7.713,-25.604 -33.326,-72.593 -66.495,-116.13c-21.082,-56.72 -34.517,-54.979 -40.513,3.787l-23.41,0.981l1.287,84.193l21.875,3.728Z" style="fill:#ef7b26;"/><path d="M2629.1,1371.32c-3.9,0.531 -7.726,1.799 -11.642,1.687c-4.159,-0.118 -8.379,-0.221 -12.504,-0.403c-1.976,-0.087 -4.601,0.014 -6.383,1.168c-3.255,2.109 -2.931,5.733 -2.764,8.982c0.353,6.871 6.024,15.09 12.849,16.267c3.191,0.551 5.55,-1.465 7.828,-3.809c3.959,-4.073 6.183,-9.855 9.456,-14.506c2,-2.842 3.16,-9.386 3.16,-9.386Z" style="fill:#ef7b26;"/><path d="M2559.97,219.222c-2.553,-2.647 -4.971,-5.96 -8.42,-7.353c-5.538,-2.237 -10.695,4.143 -13.681,6.62c-9.788,8.12 -6.929,20.612 6.456,23.776c3.751,0.887 9.097,0.682 12.97,0.357c7.958,-0.668 14.348,-3.593 21.923,-4.659c5.353,-0.753 10.745,-0.678 16.291,-0.678c2.223,0 5.542,0.693 6.251,-1.687c1.193,-4.005 -3.41,-5.347 -5.907,-7.969c-4.445,-4.668 -11.79,-12.337 -20.087,-10.62c-5.374,1.113 -15.796,2.213 -15.796,2.213Z" style="fill:#ef7b26;"/><path d="M2606.81,227.163c1.229,2.564 2.383,5.167 3.689,7.694c4.661,9.02 18.099,6.215 25.635,6.89c3.858,0.346 11.506,-2.757 12.391,-6.88c0.953,-4.443 -7.744,-4.05 -10.065,-4.737c-11.301,-3.341 -31.65,-2.967 -31.65,-2.967Z" style="fill:#ef7b26;"/><path d="M2571.96,248.358c-4.18,0.597 -8.411,1.133 -12.541,1.792c-2.372,0.378 -6.743,5.409 -3.199,7.45c6.837,3.936 36.133,13.353 33.311,2.791c-0.947,-3.544 -17.571,-12.033 -17.571,-12.033Z" style="fill:#ef7b26;"/></g><path id="MAGT11" d="M2750.82,417.479l-4.434,-7.434l7.779,-18.562c-72.973,-44.116 -53.836,-53.517 -7.722,-52.751l-0.549,-20.871c-6.654,3.017 -13.357,3.59 -20.128,0.763l-4.134,-3.716c3.34,-23.186 -35.798,-18.804 -58.804,-12.266c-16.367,-7.692 -13.826,-10.229 -26.796,-20.946c-15.823,-4.386 -31.817,-3.203 -47.691,0.472c-10.237,9.124 -17.76,24.153 -22.693,32.74c27.75,4.501 2.997,26.946 -17.142,38.381c8.459,33.089 47.994,21.258 60.323,40.32c-4.256,6.084 6.872,43.727 -5,49.706c8.554,2.184 13.046,6.858 11.731,15.055c17.218,-8.665 38.769,-5.99 42.652,3.295c18.443,0.787 28.944,-2.162 17.94,-10.182c9.142,-17.59 28.286,-31.404 47.61,-24.068c-7.157,16.072 2.788,18.754 20.684,0.408l6.374,-10.344Z" style="fill:#efe59e;"/><g id="NZST12"><path d="M2745.89,317.861l42.18,1.163c14.892,21.842 30.566,17.465 19.151,-4.044c48.941,-1.202 110.337,12.595 130.276,50.964c-6.763,-18.662 18.512,-9.585 22.286,-5.876c20.994,13.131 16.493,18.868 -8.807,16.047c5.424,20.095 -2.902,25.225 -34.972,2.341c-12.219,4.528 -17.643,-2.247 -21.41,-11.778c-2.28,21.819 -8.844,26.729 -36.114,18.995c26.424,15.542 39.301,34.414 5.217,31.825l-56.476,28.519c-45.463,-9.013 -70.36,8.355 -64.728,28.708c7.863,-8.744 13.891,32.059 -0.533,16.84c-1.386,3.866 -9.041,8.492 -2.131,22.644c-51.836,56.606 -59.953,51.552 -44.217,-36.093l57.018,-39.554l15.718,-21.995c-4.574,-2.336 -17.532,1.352 -17.532,1.352l-4.434,-7.874l7.779,-18.562c-21.925,-13.082 -39.004,-25.812 -46.981,-36.478c-7.703,-10.301 5.232,-17.358 39.259,-16.273c1.422,0.435 -1.416,-18.213 -0.549,-20.871Z" style="fill:#f6c49f;"/><path d="M2898.92,281.696c-5.105,1.819 -14.696,3.989 -18.415,9.512c-6.473,9.613 1.27,17.673 12.886,15.265c5.028,-1.042 17.527,-6.929 19.822,-11.683c3.382,-7.004 -14.293,-13.094 -14.293,-13.094Z" style="fill:#f6c49f;"/><path d="M2827.33,1373.5c-7.054,7.639 -13.374,15.592 -20.763,22.855c-3.186,3.132 -5.436,7.194 -9.018,9.984c-2.834,2.208 -6.188,3.054 -9.229,4.804c-3.671,2.112 -11.874,10.167 -10.642,15.034c1.567,6.192 14.22,10.685 19.825,9.04c3.71,-1.088 7.246,-5.399 9.849,-7.978c6.213,-6.155 13.025,-12.322 18.488,-19.163c3.157,-3.954 7.852,-5.542 9.399,-10.948c1.669,-5.837 2.177,-12.992 1.029,-18.941c-0.213,-1.102 -0.188,-4.819 -1.734,-5.297c-1.912,-0.591 -7.204,0.61 -7.204,0.61Z" style="fill:#f6c49f;"/><path d="M2830.37,1317.79c2.988,4.71 6.125,9.315 8.194,14.508c1.752,4.396 2.113,9.106 3.229,13.516c1.375,5.432 -3.048,10.659 -1.602,16.372c0.88,3.478 5.422,5.276 6.64,8.769c1.052,3.019 -0.396,7.301 1.932,9.636c1.887,1.893 7.716,-2.468 8.946,-3.381c6.883,-5.108 14.517,-14.715 15.956,-23.276c0.537,-3.197 0.9,-7.622 -1.126,-10.285c-1.576,-2.07 -4.791,-2.497 -7.071,-3.397c-2.981,-1.176 -5.45,-3.069 -8.309,-4.488c-5.158,-2.557 -10.17,-7.45 -14.22,-11.451c-2.306,-2.278 -4.056,-6.568 -7.019,-8.031c-1.181,-0.583 -5.55,1.508 -5.55,1.508Z" style="fill:#f6c49f;"/></g></svg>